<?xml version="1.0" encoding="UTF-8"?>
<svg version="1.1" viewBox="0 0 1600 1189" width="612" height="455" xmlns="http://www.w3.org/2000/svg">
<path transform="translate(0)" d="m0 0h1600v1189h-1600z" fill="#FCFDFD"/>
<path transform="translate(1023,154)" d="m0 0h22l11 4 9 6 8 9 9 14 5 6 9 5 20 4 8 5 3 3 5 17 4 6 6 2 10 2 9 7 6 9 2 5 18-2 6-1 7 21 6 14 4 11 5 12 2 3v4l2-1 14-34 8-20 5-10h7l29 8 4 2h3v-10l4-5 8-3 1-4-4-2-3-6 3-9 9-7 4-3-1-6-1-2v-7l4-6 3-2 16-2 2-4 4-9 4-5 6-3 6-1 3-6 3-3 10-1 10 4 1 1h8l10-5 8-1 9 4 5 8 5 10 8 3 11 2 5 4 3 6v6l-5 9 4 2 11 8 4 5 1 9-2 4-5 4v4l10 3 3 3 2 6-1 8-4 5-2 1v9l-3 6-7 5-9 1h-11l-5 6 1 4 11 9 9 13 10 19 10 24 8 22 8 29 1 10-2-4-7-27-9-26-12-29-8-15-8-12-4-5-2-1-2 9-2 3 2-14-14-10-10-5-7-3-5 32-3 26 13-4h5l-2-6-7-9 1-3 2 1 2 4 8 10 8 1 2-7h1l1 14 7 26 6 23 5 13 16-2h13l2 4-3 5h-2l1-6h-14l-9 1v2l2 1-8-1-23-5-34-8-6-2 1 2v27l7 2 15 5 12 5 22 7 21 6 4 2-11-1-8-1-14 4h-4l12 25 5 16 3 22v11h-1l-3-25-4-17-9-21-4-7v-2l-15 3-20 5v17l3 43 4 50 1 4 1 24 1 4 3 53 2 35 35-4 13-2 1-12h1v14l-22 3h-2l-1 10-3 27-9 1-2 24-2 36-2 12-2 16-6 40-4 26-5 48-2 23v23l4 7 7 7 8 7 1 4h-43v-29l1-9v-71l-1-17 1-91 5-57h-25l-8 54-8 46-8 44-9 49-5 28-5 25 5 2 10 9 5 5 7 2 2 3v8l-1086 1-14 10-12 9-15 9-7 3h-10l-5-3-4-5-1-5v-11l3-8 7-5 18-3 30-3h7l-7-8-9-9-6-5-3-3-11-7-1-1-7 1-24 15-12 7-5 2-14 1-7-2-7-8v-10l3-8 8-8 11-4 4-1h32l-7-8-13-13-4-6v-6l7-6 10-4 5 1 6 7 3 4 5 19 5 23 11 8 11 5 20 6 6 3 2-23 3-26 4-5 4-7v-3l4-4 6-15 4-18 3-18 9-39 7-14 3-4-9-3-10-6-8-9-7-14-2-18 1-2v-9l-2-9 4 5 1 3 2 1-3-11 1-3 3 6 2 1v-9l2 2 6-1v-2l8-4h7l15 4 8 3-2 2-9 2-9 6-5 7-2 7v12l4 11 6 8 10 8 5-1 9-4 5-1h20l25 2-7-29-5-32v-3l-11-1-36-6-18-4-1-5 4-29 3-30 7-9 7-14 4-10 2 1 4 14 3 9 1 5h2v2l4 2 12 11 7 8 9 13 6 7 3 2v2h3v2h3v2l7 2 3 1h14l6-4 8-8 2-1 4-7 2-2-17 5-5 1-4 4-9 5h-2l2-4 9-11 9-10 12-15-2-4-16-13-4-4-3-8-2-17-2-24-3-16-3-9h-2l-5-5-4-3-9-2 1-9 4-21 1-11 2-52 17 1 8 2 1 4h2l3 8 1 4v26l-2 20v18l4 12 7 10 7 6 9 5 11 3h17l12-4 9-6 4-3-3 13-8 18-8 14-2 5 2 1 2-6 9-16 5-11 5-18 2-13 3-10 4-9h2l1-4 4-4h2v-2l10-4 7-1 3 1-10-30-4-20-2-13h-11l-19 9h-13l-8-4-11-10-7-6-7-8-11-12v-6l6-5 2-4-14-2-17-2-4-1-1 4-6 15-7 15-6 16-2 5-2 57-4 24-4 15-4 8-5 13-9 16-12 16-9 5-4 1v2l-16 9h-2l-2-7v-8l4-19 5-25 2-14v-41l-3-25-4-18-8-24-5-12v-2l-3 1 11 28 6 21 4 27 1 16v19l-3 25-5 25-4 16-2-2-5-18-1-1h-14l-10 5-6 7h-2l-1 4h-2l-1 5v24l5 26 8 26 7 20 4 9-1 3-3-5-6-16-5-15-5-16-43-11-5-2-2 17v14l5 2v2l9 3 8 4-3 1h-3l-5 10-1-3 5-10-9-3-7-3-7 1-5 2-3-1 9-5-9-5 3-1 5 2 4 2 2-14 3-29 1-2 1-10v-21l-4-13-7-8-9-4h-21l-12 3-5 4-4 8v6l4 13 8 18 7 11-1 2-7-10-10-4-15-10-13-10-13-12-18-18-7-8-10-12-13-18-16-24-9-15-12-21-11-22-12-28-4-13v-11l3-5 7-5 7-2h13l25 5 30 9 29 11 10 3 16 1-3-7-8-14 1-2 13 21v2l15-1h29l15 2 20 6 9 4-1-8-7-19-3-8-8-23-9-36-5-31v-8l19-9 23-13 18-11 20-14 18-13 13-10 18-13 15-10 21-13 27-14 18-8 10-3-4 16-8 36v16h2l1-3 6 2 9 7 3 3v3h2l-7-14-8-9-6-3 1-10 10-39 4-10 4-4h2l-1 10v15l5 13 7 10 8 7 4 3 5 22 4 22h4v-3h2v-3h2l2-6 6-14 3-11v-33l7-7 8-13 2-6 2-13 5 2 10 11 6 18 8 32v6l-8 6-7 10-8 15-5 15-5 27-3 21v22l4 16 2 10v9l-4 17-3 7h-2l-2 8 4-1 4 5 10 8 3-1 1-2h2v-2h2v7h2l1-11 4-16 3-6 10-6 14-4 10-1h45l16 4 8 5 3 4 4 12 4 16 1 2 3 1 2 7h10l6-4 6-8 4-6h1v6l-7 9-6 5-8 2h-6l-1 10-1 5 8-1 11 5 10 4 7 2 3 9 2 9 10-3 12-6 10-8 7-10 5-5 3-2v56l-1 82v137h89l23 1 63 1v-94l2 2 4-7h1l-1 7-1 6 6-9v3l-3 6-1 9h-2l1 11 1-6 4 1v9l-4 6-2 1v4h5l4-4 3 1 1 2 5-6 3-3 6-3 1-2v-18l-1-13 4-16h3l1 1 1 7 2 61v15l4 1 1 25 1 5 1 14 2 3 2 33 1 27 2 137-1 51-17 9-7 4 2 1 12 1h10l15-2 4-3h2v12h52l1-5 8-6 3 1h14l14-5 3-1v-35l3-78 2-38 1-6 3-69 1-15 13-3 5-5 1-3v-10l-5-16-7-15-3-5 3-43 2-3 6 11 1 3h3v-4l4 2 3 3 3 1v-2h2l-3-7-4-11h3l4 6 2 1-1-15-5-22-3-7v-17l3-34 4-34 3-27 1-14 3-9 10-16 8-11 4-11v-8l-11-31-3-7-2-10-13 5-19 8h-2v6l5 10-1 5h-14v-2h-5v-9l2-8 1-7-11-20-8-16-7-18-2-8-1-12 2-3 1 13 6 20 7 16 18 32v2l13-5 20-9h3v-2h4l-5-12-8-15-6-11-3-7-8-12 2-1 1-7 5-13 1-5-9-7-8-7v-2h-13l-12 2h-15l-10-3-1-1v-24l-14 11-12 5-4-1 13-5 9-7 8-7 4-10 2-1 1 2 5-8 1-9-2-3-23-8-13-1-5-3v-3l3 3 3 1h12l4-4 2-4v-8l-3-6-5-3h-11l-5 4-2 5v11l-2-3-2-12-8 1-7 4h-9l-5-2-3-5v-8l5-6 5-3 11 1 2-4 4-2v-2l12-5z" fill="#E4E7F5"/>
<path transform="translate(331,61)" d="m0 0 5 1 10 3 6 1-5 4-3 8v23l-4 10-9 8-11 4v4l3 5 5-1 4-4 12-3 29-1h30l15 1 3 1 7-10 7-7 3-2h3l1 14 2 7v4h2l1-2h10l4 2-1 2 5-1 6-2 14-1 17 8 8 1 3-14 3-18 5 2 5 4 9 12 2 5 1 12 1 3h7l82 18 115 26 34 9 1-1 2-11 7-3-1-7v-17l3-10 6-10 8-7 10-4 5-1h22l10 3 7 6 4 6 6 7 3 13-1 10-2 11 6 3 1 1v9l-5 10-6 3-1 5 12 3 23 3 12 1 28 1h26l7 1 1 4 4-13 4-7 7-7 30-1v-8l3-6 5-4h11l5 3 3 4 1 3v8l-4 6-3 3h-12l-5-3 1 2 3 1 13 1 23 8 3 4-1 9-6 9-2-1-5 10-11 10-10 6-5 2 12-5 10-8 4-2 1 24 10 3h15l12-2h11l5 5 11 9 4 3-1 5-6 16-2 5 10 15 3 8 6 10 8 17 2 4v3h-4v2l-12 5-20 9h-4l-14-26-6-11-7-16-5-17 1 6 5 15 8 18 10 17 4 8-1 7-2 8-1 9h5l1 1h13l-1-6-4-8 1-6 28-12 6-1 5 16 5 12 7 20v8l-4 11-14 20-5 8-2 8-2 21-6 54-3 34v17l5 14 3 15v15l-3-1-4-6h-1l4 11 2 3v4h-2v2l-5-1-5-5v4h-3l-6-10-1-2-1 1-2 33-1 10 8 16 5 13 2 7v10l-3 6-4 3-9 2h-4v15l-3 69-1 6-3 59-3 92-8 4-9 3h-14-4l-6 4-2 5h-52v-12l-6 4-15 2h-10l-12-1-3-2 5-4 19-9 1-59-2-129-2-46-1-14-2-3-1-14-1-5-1-25-3-1-2-42-1-34-1-7-2-1-4 16 1 13v18l-5 5-5 1-2 5-4 4-2-1v-2l-4 2-2 2h-5l-1-5 4-3 2-4v-9l-2 1-2 9h-1v-16h2v-9l4-8-6 9h-1l1-7 1-6-4 7h-1l-1 91h-63l-25-1h-67l-20-1-1-47v-90l1-82v-55l-5 4-7 11-9 8-10 6-10 4h-5l-4-13-2-5-12-3-12-6-8-1-4 1 3-16 14-3 8-7 4-6v-4l-10 13-6 4h-10l-3-8h-3l-5-19-5-14-5-4-10-4-10-2h-45l-15 2-13 5-4 3h-2l-2 6-4 16-2 11h-2v-7h-2v2h-2l-2 4-5-2-10-9-1-2h-4l1-6 1-2h2l1-5 3-10 2-9v-9l-2-10-4-16v-22l6-38 4-17 6-14 8-14 8-9 4-2-1-11-8-30-5-15-9-10-5-3-1 13-4 10-8 11-5 5v33l-5 16-7 15h-2v3h-2v3h-4l-3-10-4-22-3-12-9-7-7-8-6-12-2-6v-15l2-10h-2l-1 3-3 3-5 15-8 32-2 10 6 2 7 7 5 8 3 6v3h-2l-3-5-10-8-5-2-1 4-3-1v-16l6-27 6-23 1-2-24 10-26 13-23 14-18 12-19 14-12 9-18 13-17 12-13 8-19 11-22 12-9 3 5 34 3 13v5h-10l-20-4-16-6-11-7-9-9-7-11-12-26-10-11-8-7-14-15-9-13-2-4v-10l9-4 11-2h32l21 2 23 4 18 5-3-7-7-8-7-9-1-2-1-17-6-8-7-9-3-8 2-9 5-4h8l8 7 9 10 9 4 15 4 8 4 3-4 7-11 9-10 7-7 14-9 8-4 17-7 8 1v2l6 1-4-10h-13l-10 5-6-1-13 9-4 3-2-1 9-11 4-5 1-3-3-1 14-15 17-16 9-8 7-6 6-12z" fill="#F8F9FB"/>
<path transform="translate(1023,154)" d="m0 0h22l11 4 9 6 8 9 9 14 5 6 9 5 20 4 8 5 3 3 5 17 4 6 6 2 10 2 9 7 6 9 2 5 18-2 6-1 7 21 6 14 4 11 5 12 2 3v4l2-1 14-34 8-20 5-10h7l29 8 4 2h3v-10l4-5 8-3 1-4-4-2-3-6 3-9 9-7 4-3-1-6-1-2v-7l4-6 3-2 16-2 2-4 4-9 4-5 6-3 6-1 3-6 3-3 10-1 10 4 1 1h8l10-5 8-1 9 4 5 8 5 10 8 3 11 2 5 4 3 6v6l-5 9 4 2 11 8 4 5 1 9-2 4-5 4v4l10 3 3 3 2 6-1 8-4 5-2 1v9l-3 6-7 5-9 1h-11l-5 6 1 4 11 9 9 13 10 19 10 24 8 22 8 29 1 10-2-4-7-27-9-26-12-29-8-15-8-12-4-5-2-1-2 9-2 3 2-14-14-10-10-5-7-3-5 32-3 26 13-4h5l-2-6-7-9 1-3 2 1 2 4 8 10 8 1 2-7h1l1 14 7 26 6 23 5 13 16-2h13l2 4-3 5h-2l1-6h-14l-9 1v2l2 1-8-1-23-5-34-8-6-2 1 2v27l7 2 15 5 12 5 22 7 21 6 4 2-11-1-8-1-14 4h-4l12 25 5 16 3 22v11h-1l-3-25-4-17-9-21-4-7v-2l-15 3-20 5v17l3 43 4 50 1 4 1 24 1 4 3 53 2 35 35-4 13-2 1-12h1v14l-22 3h-2l-1 10-3 27-9 1-2 24-2 36-2 12-2 16-6 40-4 26-5 48-2 23v23l4 7 7 7 8 7 1 4h-43v-29l1-9v-71l-1-17 1-91 5-57h-25l-8 54-8 46-8 44-9 49-5 28-5 25 5 2 10 9 5 5 7 2 2 3v8h-361l-56-1 2-4 11-5 6-1 3 1 12 1h10l15-2 4-3h2v12h52l1-5 8-6 3 1h14l14-5 3-1v-35l3-78 2-38 1-6 3-69 1-15 13-3 5-5 1-3v-10l-5-16-7-15-3-5 3-43 2-3 6 11 1 3h3v-4l4 2 3 3 3 1v-2h2l-3-7-4-11h3l4 6 2 1-1-15-5-22-3-7v-17l3-34 4-34 3-27 1-14 3-9 10-16 8-11 4-11v-8l-11-31-3-7-2-10-13 5-19 8h-2v6l5 10-1 5h-14v-2h-5v-9l2-8 1-7-11-20-8-16-7-18-2-8-1-12 2-3 1 13 6 20 7 16 18 32v2l13-5 20-9h3v-2h4l-5-12-8-15-6-11-3-7-8-12 2-1 1-7 5-13 1-5-9-7-8-7v-2h-13l-12 2h-15l-10-3-1-1v-24l-14 11-12 5-4-1 13-5 9-7 8-7 4-10 2-1 1 2 5-8 1-9-2-3-23-8-13-1-5-3v-3l3 3 3 1h12l4-4 2-4v-8l-3-6-5-3h-11l-5 4-2 5v11l-2-3-2-12-8 1-7 4h-9l-5-2-3-5v-8l5-6 5-3 11 1 2-4 4-2v-2l12-5z" fill="#8BAFED"/>
<path transform="translate(509,155)" d="m0 0 5 2 10 11 6 18 8 32v6l-8 6-7 10-8 15-5 15-5 27-3 21v22l4 16 2 10v9l-4 17-3 7h-2l-2 8 4-1 4 5 10 8 3-1 1-2h2v-2h2v7h2l1-11 4-16 3-6 10-6 14-4 10-1h45l16 4 8 5 3 4 4 12 5 19 3 13-2 8h-11l-11 4-7 6-8 15-6 20-3 16v23l9 11 6 7v2h-11l-16-4h-9l-14 4h-8l-5-2 2-4 7-8 5-6v-23l-5-25-5-15-7-11-5-4v-2l-9-3-16-1 1 13-3-1h-9l-19 9h-13l-8-4-11-10-7-6-7-8-11-12v-6l6-5 2-4-14-2-17-2-4-1-1 4-6 15-7 15-6 16-2 5-2 57-4 24-4 15-4 8-5 13-9 16-12 16-9 5-4 1v2l-16 9h-2l-2-7v-8l4-19 5-25 2-14v-41l-3-25-4-18-8-24-5-12v-2l-3 1 11 28 6 21 4 27 1 16v19l-3 25-5 25-4 16-2-2-5-18-1-1h-14l-10 5-6 7h-2l-1 4h-2l-1 5v24l5 26 8 26 7 20 4 9-1 3-3-5-6-16-5-15-5-16-43-11-5-2-2 17v14l5 2v2l9 3 8 4-3 1h-3l-5 10-1-3 5-10-9-3-7-3-7 1-5 2-3-1 9-5-9-5 3-1 5 2 4 2 2-14 3-29 1-2 1-10v-21l-4-13-7-8-9-4h-21l-12 3-5 4-4 8v6l4 13 8 18 7 11-1 2-7-10-10-4-15-10-13-10-13-12-18-18-7-8-10-12-13-18-16-24-9-15-12-21-11-22-12-28-4-13v-11l3-5 7-5 7-2h13l25 5 30 9 29 11 10 3 16 1-3-7-8-14 1-2 13 21v2l15-1h29l15 2 20 6 9 4-1-8-7-19-3-8-8-23-9-36-5-31v-8l19-9 23-13 18-11 20-14 18-13 13-10 18-13 15-10 21-13 27-14 18-8 10-3-4 16-8 36v16h2l1-3 6 2 9 7 3 3v3h2l-7-14-8-9-6-3 1-10 10-39 4-10 4-4h2l-1 10v15l5 13 7 10 8 7 4 3 5 22 4 22h4v-3h2v-3h2l2-6 6-14 3-11v-33l7-7 8-13 2-6z" fill="#B9C2D6"/>
<path transform="translate(331,61)" d="m0 0 5 1 10 3 6 1-5 4-3 8v23l-4 10-9 8-11 4v4l3 5 5-1 4-4 12-3 29-1h30l15 1 3 1 7-10 7-7 3-2h3l1 14 2 7v4h2l1-2h10l4 2-1 2 5-1 6-2 14-1 17 8 8 1 3-14 3-18 5 2 5 4 9 12 2 5 1 12 1 3h7l82 18 115 26 34 9 2-1v4l4 2 8 6 4 13 6 9 3 4h-2v16l-9 3-6 3-7 6-4 5v4l-25 10-10 5-7 8-11 19-7 14-3-1-3-17v-3l-21 2h-6v15l-1 3-1 18-7 10-8 11-8 8-13 9-6 3 5 10 3 11 5-2 10-9 7-8 10-19h1v33l-9 6-12 10-6-1-4-4 1 8-3 1-5-19-5-14-5-4-10-4-10-2h-45l-15 2-13 5-4 3h-2l-2 6-4 16-2 11h-2v-7h-2v2h-2l-2 4-5-2-10-9-1-2h-4l1-6 1-2h2l1-5 3-10 2-9v-9l-2-10-4-16v-22l6-38 4-17 6-14 8-14 8-9 4-2-1-11-8-30-5-15-9-10-5-3-1 13-4 10-8 11-5 5v33l-5 16-7 15h-2v3h-2v3h-4l-3-10-4-22-3-12-9-7-7-8-6-12-2-6v-15l2-10h-2l-1 3-3 3-5 15-8 32-2 10 6 2 7 7 5 8 3 6v3h-2l-3-5-10-8-5-2-1 4-3-1v-16l6-27 6-23 1-2-24 10-26 13-23 14-18 12-19 14-12 9-18 13-17 12-13 8-19 11-22 12-9 3 5 34 3 13v5h-10l-20-4-16-6-11-7-9-9-7-11-12-26-10-11-8-7-14-15-9-13-2-4v-10l9-4 11-2h32l21 2 23 4 18 5-3-7-7-8-7-9-1-2-1-17-6-8-7-9-3-8 2-9 5-4h8l8 7 9 10 9 4 15 4 8 4 3-4 7-11 9-10 7-7 14-9 8-4 17-7 8 1v2l6 1-4-10h-13l-10 5-6-1-13 9-4 3-2-1 9-11 4-5 1-3-3-1 14-15 17-16 9-8 7-6 6-12z" fill="#E4E7F5"/>
<path transform="translate(780,271)" d="m0 0h2l-1 10-3 16 5 2 7 4 1 4-1-5-10-6v-7l4-18 4 1 10 19 17 34 8 15v4l1 1 1 232 1-234 9-6 13-10 13-9v-5l-3-6 1-4 11-7-1-11-2-10v-4l13 2 19 7 10 5v3h4l6 9 7 19 5 22 2 15 1 2 1 10 2 9 5 41 2 21v23l-3 21h-2l-6-8-5-6-8-7-10-9-2-5h8l10 2-10-3h-10l4 7 17 16 7 7 5 7v2h-3l5 3-2 44-1 21-1 39-1 8-3 2-2 4h-11l-2-2-1 3 8 1-6 10-2 8-3 3-1 91h-63l-25-1h-67l-20-1v-59l2-152 2-191 1-28 16-8 13-4z" fill="#FBFDFD"/>
<path transform="translate(388,457)" d="m0 0 17 1 8 2 1 4h2l3 8 1 4v26l-2 20v18l4 12 7 10 7 6 9 5 11 3h17l12-4 9-6 4-3-3 13-8 18-8 14-2 5 2 1 2-6 9-16 5-11 5-18 2-13 3-10 4-9h2l1-4 4-4h2v-2l10-4 7-1 2 1 10 24v8l-2 5v18l4 8 8 7 6 3-5 14-5 21-7 40-5 12-4 6-12 12-4 3h-2l1 5 12 33-1 4h-8l-2-2v-3l-14 3-5 5-8 3h-7l-3-3 12-1 7-3 2-2v-8l-11 1-3-3v-5l-14-9-5-2-7 1-4 6-4 13v15l6 9 12 12 4 7v3l19-2 12-3 6-1 2 3v6l-7 3-3 1 1 10-2 3h-9v-1l7-1 1-1v-8l-9 2v8l-2-1v-8l-20 1v7l-1 2v12l6 21 8 16 7 8 5 3 5-1 6-10 5-11 4-13 1 4-1 8-1 33-5 47-16 5-9 5h-2l-2-18-2-20-9 3-3 3-3 16-4 48-2 23h-10l1 7h2 2l-2 4-3 2 6 1-1 3-3 1 7 4 9 2 3 5h-87v-1h67v-2l-4-2-3-3-17-3-1-1-10-71-5-33-1-3-21-9-2-1-1 16-1 5h-1v-22l-9-4-3-1h-7l-10 5-9 11-6 8 1 5 5 7 2 5v6l-7 9-5 5 1 12 9 45 4 9 5 5 2 1 20 1-2-10-1-4h-13l-2-38v-18l8-7 8-9 5-9 1 3-6 10-13 13h-2l3 45v8h10l4 4 2 7v6l-125 2-14 10-12 9-15 9-7 3h-10l-5-3-4-5-1-5v-11l3-8 7-5 18-3 30-3h7l-7-8-9-9-6-5-3-3-11-7-1-1-7 1-24 15-12 7-5 2-14 1-7-2-7-8v-10l3-8 8-8 11-4 4-1h32l-7-8-13-13-4-6v-6l7-6 10-4 5 1 6 7 3 4 5 19 5 23 11 8 11 5 20 6 6 3 2-23 3-26 4-5 4-7v-3l4-4 6-15 4-18 3-18 9-39 7-14 3-4-9-3-10-6-8-9-7-14-2-18 1-2v-9l-2-9 4 5 1 3 2 1-3-11 1-3 3 6 2 1v-9l2 2 6-1v-2l8-4h7l15 4 8 3-2 2-9 2-9 6-5 7-2 7v12l4 11 6 8 10 8 5-1 9-4 5-1h20l25 2-7-29-5-32v-3l-11-1-36-6-18-4-1-5 4-29 3-30 7-9 7-14 4-10 2 1 4 14 3 9 1 5h2v2l4 2 12 11 7 8 9 13 6 7 3 2v2h3v2h3v2l7 2 3 1h14l6-4 8-8 2-1 4-7 2-2-17 5-5 1-4 4-9 5h-2l2-4 9-11 9-10 12-15-2-4-16-13-4-4-3-8-2-17-2-24-3-16-3-9h-2l-5-5-4-3-9-2 1-9 4-21 1-11z" fill="#8BAFED"/>
<path transform="translate(1404,158)" d="m0 0 9 2 5 4 8 16 8 3 11 2 5 4 3 6v6l-5 9 4 2 11 8 4 5 1 9-2 4-5 4v4l10 3 3 3 2 6-1 8-4 5-2 1v9l-3 6-7 5-9 1h-11l-5 6 1 4 11 9 9 13 10 19 10 24 8 22 8 29 1 10-2-4-7-27-9-26-12-29-8-15-8-12-4-5-2-1-2 9-2 3 2-14-14-10-10-5-7-3-5 32-3 26 13-4h5l-2-6-7-9 1-3 2 1 2 4 8 10 8 1 2-7h1l1 14 7 26 6 23 5 13 16-2h13l2 4-3 5h-2l1-6h-14l-9 1v2l2 1-8-1-23-5-34-8-6-2 1 2v27l7 2 15 5 12 5 22 7 21 6 4 2-11-1-8-1-14 4h-4l12 25 5 16 3 22v11h-1l-3-25-4-17-9-21-4-7v-2l-15 3-20 5v17l3 43 4 50 1 4 1 24 1 4 3 53 2 35 35-4 13-2 1-12h1v14l-22 3h-2l-1 10-3 27-9 1-2 24-2 36-2 12-2 16-6 40-4 26-5 48-2 23v23l4 7 7 7 8 7 1 4h-43v-29l1-9v-71l-1-17 1-91 5-57h-25l-8 54-8 46-8 44-9 49-5 28-5 25 5 2 10 9 5 5 7 2 2 3v8h-361l-56-1 2-4 11-5 6-1 3 1 12 1h10l15-2 4-3h2v12h52l1-5 8-6 3 1h14l14-5 3-1v16h56v-7l3-3 14-1 2-4 8-11h18l6 3 4 4 3 14v5h70l1-5 8-6 5-5 6-9 4-11 3-20 4-40 8-130 4-48-9-1-1-1v-33l16 1 25 3h5l6-97 5-65 2-24 2-41v-41l-6-23-3-4-3-10v-3h-2l-1-21-1-2-2-13-7-11 2-5 2-1-1 6 5 8v2h2v4l10-3v-11l-2-18-3-22-1-7v-8l-13 5-6 2v-2h-5l-6-8-4-1h-14l-3-1-2 7-3 26-1 14v34l1 10 5-18h1v9l-5 29-2 14-2 4v-88l4-36v-8l-3-6v-8l-2-4-3-1v-10l4-5 8-3 1-4-4-2-3-6 3-9 9-7 4-3-1-6-1-2v-7l4-6 3-2 16-2 2-4 4-9 4-5 6-3 6-1 3-6 3-3 10-1 10 4 1 1h8l10-5z" fill="#4046C1"/>
<path transform="translate(974,336)" d="m0 0h1v23l3 8 9 12 1 3v29l-4 31-3 15-3 8-13 36-5 17-4 23v91l2 54 2 1h36l-2-18-1-17-1-7v-53l1-16 2-12h1v99l2 25h101l1-31 2-54v-57l-4-27-2-9-4 2-11 10-14 11v1l17 3 1 1 2 13v5l-22-3-34-5-2-1v-18l18 1 2-4 26-36 8-11v-9l-5-19-3-20v-50l3-18h1v8l-2 11v45l2 18 4 17 3 10 1 1 3-5 2-21 2-28 1-8 1-1h13l-1-6-4-8 1-6 28-12 6-1 5 16 5 12 7 20v8l-4 11-14 20-5 8-2 8-2 21-6 54-3 34v17l5 14 3 15v15l-3-1-4-6h-1l4 11 2 3v4h-2v2l-5-1-5-5v4h-3l-6-10-1-2-1 1-2 33-1 10 8 16 5 13 2 7v10l-3 6-4 3-9 2h-4v15l-3 69-1 6-3 59-3 92-8 4-9 3h-14-4l-6 4-2 5h-52v-12l-6 4-15 2h-10l-12-1-3-2 5-4 19-9 1-59-2-129-2-46-1-14-2-3-1-14-1-5-1-25-3-1-2-42-1-34-1-7-2-1-4 16 1 13v18l-5 5-5 1-2 5-4 4-2-1v-2l-4 2-2 2h-5l-1-5 4-3 2-4v-9l-2 1-2 9h-1v-16h2v-9l4-8-6 9h-1l1-7 1-6-1-4 6-9-7-2v-5l3 3h11l3-5h2l1-47 3-59v-6l-6-3 3-1 2 1-8-11-13-13-8-7-4-5v-3l2-1h8l16 5-3 1-6-2-15-2 6 8 16 14 9 11v2h2l2-21v-23l-5-48-3-23 2 1 4 28 1 14h2l3-24 2-4-1 27 5 1 17 1h15v-28l-10-14-2-5v-21z" fill="#F87386"/>
<path transform="translate(1138,463)" d="m0 0 1 2-1 2-4 96-3 93-1 9h6l2 40 66-9h8v-31l1-1h24l2 8 10 114 9 103 3 39 4 41 1 19h20l-5 6h-2l-2 4-6 4-2 5h-70l-3-15v-4l-3-1-4-4-3-1h-18l-10 14-2 1-14 1-1 9h-56v-51l3-78 2-38 1-6 3-69 1-15 13-3 5-5 1-3v-10l-5-16-7-15-3-5 3-43 2-3 6 11 1 3h3v-4l4 2 3 3 3 1v-2h2l-3-7-4-11h3l4 6 2 1-1-15-5-22-3-7v-17l3-34 4-34 3-27 1-14 3-9z" fill="#8CB0ED"/>
<path transform="translate(331,61)" d="m0 0 5 1 10 3 6 1-5 4-3 8v23l-4 10-9 8-11 4v4l3 5 5-1 4-4 12-3 29-1h30l15 1 3 1 7-10 7-7 3-2h3l1 14 2 7v4h2l1-2h10l4 2-1 2 5-1 6-2 14-1 17 8 8 1 3-14 3-18 5 2 5 4 9 12 2 5 1 15-4 12-5 9-4 2-4-7-3-13v-18l2-17h-3v8l-2 15v8l3 14h-2l-3-4-5 1v14l-4 10-8 11-5 5v33l-5 16-7 15h-2v3h-2v3h-4l-3-10-4-22-3-12-9-7-7-8-6-12-2-6v-15l2-10h-2l-1 3-3 3-5 15-8 32-2 10 6 2 7 7 5 8 3 6v3h-2l-3-5-10-8-5-2-1 4-3-1v-16l6-27 6-23 1-2-24 10-26 13-23 14-18 12-19 14-12 9-18 13-17 12-13 8-19 11-22 12-9 3 5 34 3 13v5h-10l-20-4-16-6-11-7-9-9-7-11-12-26-10-11-8-7-14-15-9-13-2-4v-10l9-4 11-2h32l21 2 23 4 18 5-3-7-7-8-7-9-1-2-1-17-6-8-7-9-3-8 2-9 5-4h8l8 7 9 10 9 4 15 4 8 4 3-4 7-11 9-10 7-7 14-9 8-4 17-7 8 1v2l6 1-4-10h-13l-10 5-6-1-13 9-4 3-2-1 9-11 4-5 1-3-3-1 14-15 17-16 9-8 7-6 6-12z" fill="#E4E7F5"/>
<path transform="translate(27,395)" d="m0 0h13l25 5 30 9 29 11 10 3 16 1-3-7-8-14 1-2 13 21v2l15-1h29l15 2 20 6 9 4 2-3 9 24 14 32 13 30 11 26 11 30 2 6v5l-14 1-10 5-6 7h-2l-1 4h-2l-1 5v24l5 26 8 26 7 20 4 9-1 3-3-5-6-16-5-15-5-16-43-11-5-2-2 17v14l5 2v2l9 3 8 4-3 1h-3l-5 10-1-3 5-10-9-3-7-3-7 1-5 2-3-1 9-5-9-5 3-1 5 2 4 2 2-14 3-29 1-2 1-10v-21l-4-13-7-8-9-4h-21l-12 3-5 4-4 8v6l4 13 8 18 7 11-1 2-7-10-10-4-15-10-13-10-13-12-18-18-7-8-10-12-13-18-16-24-9-15-12-21-11-22-12-28-4-13v-11l3-5 7-5z" fill="#D5DAF0"/>
<path transform="translate(388,457)" d="m0 0 17 1 8 2 1 4h2l3 8 1 4v26l-2 20v18l4 12 7 10 7 6 9 5 11 3h17l12-4 9-6 4-3-3 13-8 18-8 14-2 5 2 1 2-6 9-16 5-11 5-18 2-13 3-10 4-9h2l1-4 4-4h2v-2l10-4 7-1 2 1 10 24v8l-2 5v18l4 8 8 7 6 3-5 14-5 21-7 40-5 12-4 6-12 12-4 3h-2l1 5 12 33-1 4h-8l-2-2v-3l-14 3-5 5-8 3h-7l-3-3 12-1 7-3 2-2v-8l-11 1-3-3v-5l-14-9-5-2-7 1-4 6-4 13v15l6 9 12 12 4 7v3l19-2 12-3 6-1 2 3v6l-7 3-3 1 1 10-2 3h-9v-1l7-1 1-1v-8l-9 2v8l-2-1v-8l-13 1h-10l-17-2-3-2-2 4-6 3-8 1h-37l-11-1-7-29-5-32v-3l-11-1-36-6-18-4-1-5 4-29 3-30 7-9 7-14 4-10 2 1 4 14 3 9 1 5h2v2l4 2 12 11 7 8 9 13 6 7 3 2v2h3v2h3v2l7 2 3 1h14l6-4 8-8 2-1 4-7 2-2-17 5-5 1-4 4-9 5h-2l2-4 9-11 9-10 12-15-2-4-16-13-4-4-3-8-2-17-2-24-3-16-3-9h-2l-5-5-4-3-9-2 1-9 4-21 1-11z" fill="#B8C1D6"/>
<path transform="translate(780,271)" d="m0 0h2l-1 10-3 16 5 2 7 4 1 4-1-5-10-6v-7l4-18 4 1 10 19 17 34 8 15v4l1 1v371h-86v-59l2-152 2-191 1-28 16-8 13-4z" fill="#FCFDFD"/>
<path transform="translate(509,155)" d="m0 0 5 2 10 11 6 18 8 32v6l-8 6-7 10-8 15-5 15-5 27-3 21v22l4 16 2 10v9l-4 17-3 7h-2l-2 8 4-1 4 5 10 8 3-1 1-2h2v-2h2v7h2l1-11 4-16 3-6 10-6 14-4 10-1h45l16 4 8 5 3 4 4 12 5 19 3 13-2 8h-11l-11 4-7 6-8 15-6 20-3 16v23l9 11 6 7v2h-11l-16-4h-9l-14 4h-8l-5-2 2-4 7-8 5-6v-23l-5-25-5-15-7-11-5-4v-2l-9-3-16-1 1 13-3-1h-9l-19 9h-13l-8-4-11-10-7-6-7-8-11-12v-6l6-5 2-4-14-2-17-2-3-1 1-5 14-29 14-24 1-5-14-48-4-27-1-16 14 1-3-5-4-1-5 1-1-1v-6h-2v-2l6 2 9 7 3 3v3h2l-7-14-8-9-6-3 1-10 10-39 4-10 4-4h2l-1 10v15l5 13 7 10 8 7 4 3 5 22 4 22h4v-3h2v-3h2l2-6 6-14 3-11v-33l7-7 8-13 2-6z" fill="#B9C2D6"/>
<path transform="translate(1052,287)" d="m0 0 7 1v25l-4 2 4-1 1-3 1-21 9 2 7 4-3 3-4 3h-2l-3 9 2 16 5 15 8 18 10 17 4 8-1 7-2 8-1 9h5v10l-4 49-4 6-2-2-6-22-2-12-1-11v-45l1-7-1 6v50l4 25 4 14v9l-11 15-26 36h-10l-8-1v18l17 2 38 6 3 1-3-18-17-3v-3l22-18 5-5 3 1 4 20 2 16v57l-3 77-1 8h-101l-2-13-1-12v-75l1-24 5-38 2-12 2-22 1-3 1-24v-31l-1-28-1-6-1-26 2-2-1-2 24-42 13-23z" fill="#FAFCFD"/>
<path transform="translate(408,403)" d="m0 0 21 2 14 2v3l-7 7v6l8 8 14 16 8 7 8 6 5 2h13l19-9h9l3 3 5 27 6 20 4 10v4l-10 1-7 3h-3v2l-6 5-1 3h-2l-1 5-4 9-2 12-4 18-5 13-10 19-4 7-3-1 2-5 9-16 7-16 3-12-7 6-10 5-7 2h-17l-13-4-11-7-8-9-5-10-2-7v-18l2-20v-26l-3-12h-2l-1-3-8-2-17-2v19l-1 33-2 18-5 23 9 1 9 7v2h2l4 9 3 16 3 35 2 9 3 6 9 8 11 9v4l-14 17-12 14-6 8 11-6 3-1 1-3 16-4 9-2-5 4-4 7-8 7-6 5-2 1h-14l-10-4v-2h-3v-2h-3l-5-5-9-11-9-13-10-10-8-6v-2h-2l-4-13-3-8-2-7-5 12-6 11-7 9-5 46-2 13h-2l-1 13h-6l-10-5-22-12-4-1v-3l-5-1-10-5v-2l-6-1-14-7-5-2v-2l-5-1-1-1v-14l2-14 1-3 17 4 31 8 3 8 8 24 6 16 2 4-3-9-7-18-8-28-4-16-2-12v-24l2-5h2l1-4 5-5 8-6 5-2h14l3 5 4 15 2-4 6-29 3-20 1-11v-19l-2-24-3-19-6-21-11-28 4-1 6 14 9 27 4 22 2 18v41l-6 36-4 16-1 6v8l1 7 16-9h2v-2l12-6 10-13 10-17 4-10 6-13 6-25 2-14 2-57 6-16 5-12 5-10 5-13z" fill="#FCFDFD"/>
<path transform="translate(919,619)" d="m0 0h1l-1 7-1 6 6-9v3l-3 6-1 9h-2l-1-5-1 1-1 83h-17v25l-2 143-1 75v23l6 7v2l10 3 1 1v9h-49v-19l-5-1-10-116-11-124-3-29-14-1-2 25-8 76-14 145-3 25-4 1v18h-57l2-10 3-1 12-1 8-10 1-4-1-79-1-111v-74h-19l-1-1v-44h1v43h90l23 1 63 1v-94l2 2z" fill="#8BAFEC"/>
<path transform="translate(818,126)" d="m0 0h22l10 3 7 6 4 6 6 7 3 13-1 10-2 11 6 3 1 1v9l-5 10-6 3-8 17-4 6v13l-1 7 10 2 9 5 8 7 4 7 13 5-3 1-11-4-13-3 4 20v5l-10 7-2 1 1 6 2 3v5l-18 13-16 12h-2v331h-1l-1-97-1-232-2-3h2l-12-23-23-46-4-2-1 8-2 10v7l10 6 1 5-2 3-1-7-11-6 1-11 3-15-10 4-13 4-15 7-1 28-3 275-1 68-1 12h-1v-90l1-82v-55l-5 4-7 11-9 8-10 6-10 4h-5l-4-13-2-5-12-3-12-6-8-1-4 1 3-16 14-3 8-7 4-6v-4l-10 13-6 4h-10l-3-8-2-6 1-4 6 5 5-1 11-9 7-5h2l-1-31-9 17-11 12-7 6-5 2-3-9-4-9-2-4 15-9 13-12 9-13 5-7 1-18 1-3 1-15 18-2h9l4 20h2l2-5 7-14 9-14 7-8 14-7 19-7h2l-1-4 9-10 6-4 11-3v-14l2-3-7-8-5-12-1-5-8-6-3-2v-12l2-4 6-2-1-7v-17l3-10 6-10 8-7 10-4z" fill="#8DB0EC"/>
<path transform="translate(1504,829)" d="m0 0h25l12 4 10 7 7 8 6 13 3 17-1 16v12l-1 5 10 3 6 5 3 5v7l-7 8-10 5-11 3 1 5-3 9-2 2 10 5 5 6 3 6v8l-7 6-10 3-9 1-4 2-2 6h32v2l-91 1h-58l-1-4h-2l-1 2-3-5-13-12-4-7v-23l4-44 4-35 3-18h1v5h10l13 5 8-8 17-13 18-12 15-7z" fill="#D5DAF0"/>
<path transform="translate(1300,286)" d="m0 0 4 1h16l5 4 3 5 5 1v2l11-5 5-2h3l4 27 2 15 1 13v11l-8 3h-3v-4h-2l-6-10 1-5-2 5 7 11 2 13 1 2v21h2l5 15 2 2 6 23v41l-3 56-4 49-3 42-5 80-1 1-13-1-33-4-3-1v-21l3-69 1-19-1 11-7-1-17-5v-12l2-26 1-27 5-55 3-24 1-2 2-15 1-13 1-2 3-26 4-22v-4l-5 16h-1l-1-13v-34l3-32z" fill="#F9FBFC"/>
<path transform="translate(950,604)" d="m0 0 3 2 1 7 2 61v15l4 1 1 25 1 5 1 14 2 3 2 33 1 27 2 137-1 51-17 9-10 5-13 5-3 3h-13l-2-8-8-3-5-5-4-5v-23l2-158 1-60 1-25h17v-83l2-2 1 1 1 16 1-6 4 1v9l-4 6-2 1v4h5l4-4 3 1 1 2 5-6 3-3 6-3 1-2v-18l-1-13 4-16z" fill="#E4E7F5"/>
<path transform="translate(1404,158)" d="m0 0 9 2 5 4 8 16 8 3 11 2 5 4 3 6v6l-5 9 4 2 11 8 4 5 1 9-2 4-5 4v4l10 3 3 3 2 6-1 8-4 5-2 1v9l-3 6-7 5-9 1h-11l-5 6 1 4 11 9 9 13 10 19 10 24 8 22 8 29 1 10-2-4-7-27-9-26-12-29-8-15-8-12-4-5-2-1-2 9-2 3 2-14-14-10-10-5-7-3-5 32-4 26-35 9h-3l-2-10-2-18-3-22-1-7v-8l-13 5-6 2v-2h-5l-6-8-4-1h-14l-3-1-2 7-3 26-1 14v34l1 10 5-18h1v9l-5 29-2 14-2 4v-88l4-36v-8l-3-6v-8l-2-4-3-1v-10l4-5 8-3 1-4-4-2-3-6 3-9 9-7 4-3-1-6-1-2v-7l4-6 3-2 16-2 2-4 4-9 4-5 6-3 6-1 3-6 3-3 10-1 10 4 1 1h8l10-5z" fill="#302F6D"/>
<path transform="translate(1138,463)" d="m0 0 1 2-1 2-4 96-3 93-1 9h6l2 38 2 34 4 89 1 18 2 56 2 46 1 11v28l13 1-1 4-4 6-2 1-14 1-1 9h-56v-51l3-78 2-38 1-6 3-69 1-15 13-3 5-5 1-3v-10l-5-16-7-15-3-5 3-43 2-3 6 11 1 3h3v-4l4 2 3 3 3 1v-2h2l-3-7-4-11h3l4 6 2 1-1-15-5-22-3-7v-17l3-34 4-34 3-27 1-14 3-9z" fill="#FCFDFD"/>
<path transform="translate(179,726)" d="m0 0h14l9 5 10 9 6 10 5 12 4 10 6 7 9 4 14 5 5 3 8 11 7 15 5 11 3 10h2l4 12 1 9h2l-1-6h3v7l-3 14-3 18-5 16-7 14-5 9-3 3-3 26-2 23h-3l-13-5-14-4-11-6-9-7-5-23-4-14v-5l8-16v-9l-4-7-9-11-10-12-7-10-1-5h-2l-2-7v-16l5-24v-9l-4-10-8-14-5-13-1-5v-10l3-6 7-7z" fill="#FBFCFD"/>
<path transform="translate(533,516)" d="m0 0 4 1 10 24v8l-2 5v18l4 8 8 7 6 3-5 14-5 21-7 40-5 12-4 6-12 12-4 3h-2l1 5 12 33-1 4h-8l-2-2v-3l-14 3-5 5-8 3h-7l-3-3 12-1 7-3 2-2v-8l-11 1-3-3v-5l-14-9-5-2-7 1-4 6-4 13v15l6 9 12 12 4 7v3h-20l-3-2-2-12-2-8h-2l-1 8-5 12-5 7h-3l-12-24-11-19-3-6v-9l12-11 5-5 13-11 6-3 6-4h4v-3l-5-1v-9l-6 1 4-4 14-8 10-8 5-8h2l1-5v-9l-1-2-11-4 1-2 15-5 2-1-7-5-3-1v-2h2l2-6 9-16 5-11 5-18 2-13 3-10 4-9h2l1-4 4-4h2v-2l10-4z" fill="#B8C1D6"/>
<path transform="translate(1284,685)" d="m0 0h13v13h5l1 2v31l10 1-5 64-6 102-3 34-4 34-4 14-5 8h-20l-1-5-4-45-3-33-3-39-7-80-8-90v-5z" fill="#8BAFED"/>
<path transform="translate(1011,747)" d="m0 0h13l21 2 1 1 9 97 3 39 3 53v47l-8 8-4 5-5 3-2 5h-52v-19l6-71 11-129 3-34z" fill="#FCFDFD"/>
<path transform="translate(408,403)" d="m0 0 21 2 14 2v3l-7 7v6l8 8 14 16 8 7 8 6 5 2h13l19-9h9l3 3 5 27 6 20 4 10v4l-10 1-7 3h-3v2l-6 5-1 3h-2l-1 5-4 9-2 12-4 18-5 13-10 19-4 7-3-1 2-5 9-16 7-16 3-12-7 6-10 5-7 2h-17l-13-4-11-7-8-9-5-10-2-7v-18l2-20v-26l-3-12h-2l-1-3-8-2-18-2 1-7 8-20 5-10 5-13z" fill="#FCFDFD"/>
<path transform="translate(556,862)" d="m0 0 5 1 4 5-4 1 11 13 6 11-1-3-2-4v-4h2l9 15v2l4-1h11l8 5 9 10 6 8-1 5-6-2 4 5v3l-6 4-6 2-10 1v7l-5 14-7 11-6 5v-15l-3 20 5 9 5 4 6 3 5 1v3h2v6h-20l-13-8h-3v8h-93l-4-4-7-1-8-5 4-2 1-2h-6l-1-2 5-3 1-2-4 2-3-1 3-1-2-4 1-4h7l3 1 1-23 4-48 3-16 4-4 9-3 1 1 3 32v6l16-8 13-3 21 1 10 1 10-3 3-3 5-13-1-5-6-10-3-7z" fill="#F8F9FB"/>
<path transform="translate(1213,664)" d="m0 0h24l2 8 10 114 9 103 3 39 4 41 1 19h20l-5 6h-2l-2 4-6 4-2 5h-70l-2-10v-8h18l-1-90-1-31z" fill="#FCFDFD"/>
<path transform="translate(509,155)" d="m0 0 5 2 10 11 6 18 8 32v6l-8 6-7 10-8 15-5 15-5 27-3 21v22l4 16 2 10v9l-4 17-3 7h-2l-2 4-4 3-4 1h-19l-9-2-6-7-4-9-3-17v-7l5-21 1-6v-21l-4-28-5-24-6-16-4-7-7-10-6-5-4-2 1-10 10-39 4-10 4-4h2l-1 10v15l5 13 7 10 8 7 4 3 5 22 4 22h4v-3h2v-3h2l2-6 6-14 3-11v-33l7-7 8-13 2-6z" fill="#B8C1D6"/>
<path transform="translate(1024,180)" d="m0 0h11l5 3 3 4 1 3v8l-4 6-3 3h-12l-5-3 1 2 3 1 13 1 23 8 3 4-1 9-6 9-2-1-5 10-11 10-10 6-5 2 12-5 10-8 4-2 1 24 10 3h15l12-2h11l5 5 11 9 4 3-1 5-6 16-2 5 10 15 3 8 6 10 8 17 2 4v3h-4v2l-12 5-20 9h-4l-14-26-6-11-7-16-5-17v-16l5-5 5-3-6-4-9-3v21l-3 5-4-1 4-2 1-25h-7l-12 23-11 19-14 24-9 16 2 2-3 2-1 10h-1l-3-23-3-12v-5l2 4 1 5 1-25 4-27 4-14-6 1-1 5-3 3 2-5 1-2-17 8-9 7-4 5-4 4-8 18-1-4 6-14 9-10 8-7 16-8 10-3 5-1v-11l-3-8-8-6-2-1-6-1-13-12-5-9h-1l4 11 6 7v2l-5-1-6-11-2-6 1-19 4-10 9-10 30-1v-8l3-6z" fill="#EECA95"/>
<path transform="translate(835,725)" d="m0 0 29 5 18 3v204l1-203 9 1 6 1-3 227v23l6 7v2l10 3 1 1v9h-49v-19l-5-1-10-116-11-124z" fill="#8BAFED"/>
<path transform="translate(820,718)" d="m0 0h14l1 1 6 62 11 125 7 82 4 1v18h-73l-1-17 3-1 4-35 15-155 8-76z" fill="#E4E7F5"/>
<path transform="translate(1313,732)" d="m0 0h23l20 1-9 62-13 72-2 11-9 49-5 28-5 25 5 2 10 9 5 5 7 2 2 3v8h-361l-56-1 2-4 11-5 6-1 3 1 12 1h10l15-2 4-3h2v12h52l1-5 8-6 3 1h14l14-5 3-1v16h56v-7l3-3 14-1 2-4 8-11h18l6 3 4 4 3 14v5h70l1-5 8-6 5-5 6-9 4-11 3-20 4-40 8-130 4-48z" fill="#BD7455"/>
<path transform="translate(1423,460)" d="m0 0h7l8 15 7 18 4 20 1 11h2l3 51 1 15 1 4 1 39v26h2v21l-1 12-1 1-21 3-21 2h-6l-1-3-3-47-2-38-1-4-1-24-1-4-4-50-3-43v-17l9-3z" fill="#F6F8FA"/>
<path transform="translate(174,155)" d="m0 0h8l8 7 9 10 9 4 15 4 6 4 1 2-9 19-2 1 1-13-1 2h-2v18l-5-5-9-11-10-13-3-3v-2l-2 1 9 13 11 13 8 9-2 10-5 21-1 11-1 34-1 8-7-1-18-8-9-6-8-25-6-17-3-5-4-2 8 16 8 24 1 6-6-2-18-10-10-6-3-1 4 4 24 14 16 9 10 5-3 5-22 10 6-1 21-9 2-1h6l11 5 2 18 6 29-1 4-13-1-17-4-15-6-11-8-7-7-7-11-12-26-10-11-8-7-14-15-9-13-2-4v-10l9-4 11-2h32l21 2 23 4 18 5-3-7-7-8-7-9-1-2-1-17-6-8-7-9-3-8 2-9z" fill="#D6DBF1"/>
<path transform="translate(675,771)" d="m0 0h6l3 4 1 3 3 3 5 14 6 22v9l21-7 3 1-10 4-14 5-1 2 16-4 11-2v3l-13 1v2h-6v2h21v1l-24 3h-4l-1 16-3 1v-15l-8-1-1-5-7 1v5l-4 2-4-3h-3l-1 8h-9l1 8 8 20 2 9 1 21-3 17v2l4-2-4 6-2 1-6 18-2 10-1 39-8 8-4-1-4-8-5-27-1-8-4 12h-2v4h-2l-2 4-7 9-7 7h9l3 1-2 5-3 4h-3l-6-7-7-2-10-14-4-9 1-5 6-10 4-12 1-7 16-4 4-3h2l-1-5-3-1v-2l6 1-1-5-8-10-7-8-6-3h-15l-8-14-1-3h-2l5 14v7h-1l-3-12-6-10-10-12 4-2-5-4-2-1 1-2 6 2 1-13 16 2 1-5v-14l-3-5h-6l-5 5 1-5 4-3 8 1 3 3 1 4v10l-1 10-1 1-1 7h-2l6 13 4 12v10l8-7 13-11 14-9 18-8 3-4 1-6-4-1 4-1v-3l-15 2-4 1v-3l16-2v-3l-17 1v-2h14l-5-13-8-24v-10l2-4 4 1 8 7 9 9 3 1v2l15-6 1-5h2v-11l1-14z" fill="#F67586"/>
<path transform="translate(860,213)" d="m0 0 14 3 23 3 12 1 28 1h26l7 1 1 4 1-5h1v17l4 10 4 7 4 1-8-11-3-10 3 1 6 10 11 10 6 2 1-2 4 5 6 4 3 8v11l-6 2-13 4-13 7-10 9-6 7-6 14-2 11-2 12-2 6-4 24h-2l-2 22-2 6h-2l-6-42-2-1-1-10-1-2-3-20-5-20-6-16-6-9h-2l-2 3 1-6-9-3-6-3v-2l-11-3-5-5-4-6-8-6-9-4-7-2v-20l8-14z" fill="#E2E5F4"/>
<path transform="translate(1504,829)" d="m0 0h25l12 4 10 7 7 8 6 13 3 17-1 16v12l-1 5 10 3 6 5 3 5v7l-7 8-10 5-11 3 1 5-3 9-2 2 3 2-9 2-19 10-6 4h-2v-22l3-7 1-5-4 1-3-3-4-12-4-8-5-6-13-8-24-9-6-3v-2l-3-1v-2l-4-2-16-13-6-4 6-7 13-11 17-12 14-8 12-5z" fill="#E4E7F5"/>
<path transform="translate(1356,733)" d="m0 0h17l8 1v12l-4 45-1 94 1 14v71l-1 9-1 29h43v1h-76l-2-10-8-3-11-11-8-5 1-9 7-38 9-51 2-7 6-36 8-44 8-56z" fill="#FAFBFA"/>
<path transform="translate(237,692)" d="m0 0 10 2 4 1v2l6 2 5 3 4 1v3l6 1 20 11 10 5 6 1v-9l2-4 1 4 34 7 31 5 3 17 5 27 4 16v4h-11l-14-1h-20l-10 3-6 3-4-1-10-8-6-8-4-11v-12l3-8 4-6 8-6 4-2 7-1-3-2-14-4-4-1h-7l-5 3h-3v2l-3 2-4-1v9l-1-2-3-1-2-3 2 6v5l-3-1-3-5 2 6v9l-1 4 2 16 7 14 8 9 18 9-9 18-7 30-1-2h-3l1 6h-2l-4-16-1-5h-2l-6-14-7-16-6-11-4-4v-2l-5-2-14-5-9-4-8-9-6-16-6-12-7-8-5-5 5 2 5 4 3 3 2-3 6-14 7-18 3-2z" fill="#F8FAFC"/>
<path transform="translate(1214,117)" d="m0 0h11l9 2 10 6 6 10 5 6 3 7v14l-3 11 5 2 2 2v10l-6 8-4 1h-3l-4 15-2 2 1 6 1 21 1 16-10 23-6 16-10 24-3 1-4-10-7-16-6-16-7-19-1-4-1-22-5-10-4-6-5-17-3-16v-24l1-9-6-2-3-4-1-6 3-7 4-4 22-4 16-6z" fill="#F2CD95"/>
<path transform="translate(1078,363)" d="m0 0h1v8l-2 11v45l2 18 4 17 3 10 1 1 3-5 2-21 2-28 1-8 1-1h13l-1-6-4-8 1-6 28-12 6-1 5 16 5 12 7 20v8l-4 11-14 20-5 8-2 8-2 21-6 54-3 34v17l5 14 3 15v15l-3-1-4-6h-1l4 11 2 3v4h-2v2l-5-1-5-5v4h-3l-6-10-2-4v-38l1-22v-41h-2l-4-27-2-9-4 2-11 10-14 11v1l17 3 1 1 2 13v5l-22-3-34-5-2-1v-18l18 1 2-4 26-36 8-11v-9l-5-19-3-20v-50z" fill="#F0CC96"/>
<path transform="translate(1023,154)" d="m0 0h22l11 4 9 6 8 9 9 14 5 6 9 5 20 4 8 5 3 3 5 17 4 6 6 2 10 2 9 7 6 9 2 9-2 9-6 9-7 6-13 4-12-1-9-3-16-8-6-2h-11l-12 2h-15l-10-3-1-1v-24l-14 11-12 5-4-1 13-5 9-7 8-7 4-10 2-1 1 2 5-8 1-9-2-3-23-8-13-1-5-3v-3l3 3 3 1h12l4-4 2-4v-8l-3-6-5-3h-11l-5 4-2 5v11l-2-3-2-12-8 1-7 4h-9l-5-2-3-5v-8l5-6 5-3 11 1 2-4 4-2v-2l12-5z" fill="#4148C4"/>
<path transform="translate(818,126)" d="m0 0h22l10 3 7 6 4 6 6 7 3 13-1 10-2 11 6 3 1 1v9l-5 10-6 3-8 17-4 6v13l-1 7 10 2 9 5 8 7 3 7-12-2-6-2h-12l-14 14-8 6h-5l-14-11-9-10-16 3-8 1-1-4 9-10 6-4 11-3v-14l2-3-7-8-5-12-1-5-8-6-3-2v-12l2-4 6-2-1-7v-17l3-10 6-10 8-7 10-4z" fill="#F0CC95"/>
<path transform="translate(338,901)" d="m0 0 3 1 7 11v7l-8 10-4 4 1 8 10 50 4 10 4 5h-46l-9-26 5 17 3 9-12 1v1l-40 1-14 10-12 9-15 9-7 3h-10l-5-3-4-5-1-5v-11l3-8 7-5 18-3 30-3h7l-7-8-9-9-6-5-3-3-11-7-1-1-7 1-24 15-12 7-5 2-14 1-7-2-7-8v-10l3-8 8-8 11-4 4-1h32l-7-8-13-13-4-6v-6l7-6 10-4 5 1 6 7 3 4 5 19 5 23 11 8 11 5 20 6 5 3 1 2 1 13 3 5 2 2v3l22-1v-14l-10-1-1-1 1-11 5-22 2-5 3 3-1-7 9-13 14-14 17-13z" fill="#FCFDFD"/>
<path transform="translate(1300,286)" d="m0 0 4 1h16l5 4 3 5 5 1-1 4-11 9-1 1 1 9 12 40 2 8v62l-2 22-5 15-7 11-7 18-1 8h-2l-1 12-2 18-2 35-2 2-2 28-7-1-17-5v-12l2-26 1-27 5-55 3-24 1-2 2-15 1-13 1-2 3-26 4-22v-4l-5 16h-1l-1-13v-34l3-32z" fill="#F4F6F9"/>
<path transform="translate(367,872)" d="m0 0h7l11 4 2 2v17l2-16 6 2 17 7 2 4 9 61 6 43 17 3 7 6v2h-71l-5-14-2-1-10-1-2-21-1-17v-15l8-7 9-10 1-3-8 10-9 9h-2l2 34v22h13l3 6v8h-20l-7-5-4-8-6-28-5-26v-6l8-8 4-6v-6l-4-8-4-5 1-5 9-12 6-7z" fill="#E2E6F5"/>
<path transform="translate(1381,734)" d="m0 0h31l10 1-1 24-2 36-2 12-2 16-6 40-4 26-5 48-2 23v23l4 7 7 7 8 7 1 4h-43v-29l1-9v-71l-1-17 1-91z" fill="#BD7455"/>
<path transform="translate(388,457)" d="m0 0 17 1 8 2 1 4h2l3 8 1 4v26l-2 20v18l4 12 7 10 7 6 9 5 11 3h17l12-4 9-6 4-3-3 13-8 18-8 14-2 5-4 1v2l-5 5-4 5-4 6-13 12-9 12-8 16-6 11-1 2-5 1-4 4-9 5h-2l2-4 9-11 9-10 12-15-2-4-16-13-4-4-3-8-2-17-2-24-3-16-3-9h-2l-5-5-4-3-9-2 1-9 4-21 1-11z" fill="#B9C2D5"/>
<path transform="translate(964,735)" d="m0 0 10 2 28 6 22 3v1h-13l-1 20-8 91-7 82-4 48-1 7-6 4-15 2h-10l-12-1-3-2 5-4 19-9 1-59-2-129-2-46z" fill="#F4D096"/>
<path transform="translate(1138,463)" d="m0 0 1 2-1 2-4 96-3 93-1 9h6l2 38 2 34 3 70v18h-1l-1-5-3 3 1 2-31 10-12 4h-5l3-74 1-15 13-3 5-5 1-3v-10l-5-16-7-15-3-5 3-43 2-3 6 11 1 3h3v-4l4 2 3 3 3 1v-2h2l-3-7-4-11h3l4 6 2 1-1-15-5-22-3-7v-17l3-34 4-34 3-27 1-14 3-9z" fill="#E4E7F5"/>
<path transform="translate(1409,326)" d="m0 0 2 1 2 4 8 10 8 1 2-7h1l1 14 7 26 6 23 5 13 16-2h13l2 4-3 5h-2l1-6h-14l-9 1v2l2 1-8-1-23-5-34-8-6-2 1 2v27l7 2 15 5 12 5 22 7 21 6 4 2-11-1-8-1-14 4h-4l12 25 5 16 3 22v11h-1l-3-25-4-17-9-21-4-7v-2l-15 3-20 5-2 2-12 2h-7l-3-6-5-18-1 16h-1l-1-30-6-23-3-4-3-10v-3h-2l-1-21-1-2-2-13-7-11 2-5 2-1-1 6 5 8v2h2v4l10-3 1-7h1v6l26-7 7-2h5l1-4v4l13-4h5l-2-6-7-9z" fill="#89ACEA"/>
<path transform="translate(1045,749)" d="m0 0h54l-4 1v15l-3 69-1 6-3 59-3 92-8 4-9 3h-14l-2-4 8-8v-47l-4-69-10-110z" fill="#F4D096"/>
<path transform="translate(300,429)" d="m0 0h4l6 14 9 27 4 22 2 18v41l-6 36-4 16-1 6v8l1 7 4 1-3 1v47l-4 31-1 7h-2l-1 13h-6l-10-5-22-12-4-1v-3l-5-1-10-5v-2l-6-1-14-7-5-2v-2l-5-1-1-1v-14l2-14 1-3 17 4 31 8 3 8 8 24 6 16 2 4-3-9-7-18-8-28-4-16-2-12v-24l2-5h2l1-4 5-5 8-6 5-2h14l3 5 4 15 2-4 6-29 3-20 1-11v-19l-2-24-3-19-6-21-11-28z" fill="#FCFDFD"/>
<path transform="translate(438,106)" d="m0 0h3l1 14 2 7v4h2l1-2h10l4 2-1 2 5-1 6-2 14-1 17 8 8 1 3-14 3-18 5 2 5 4 9 12 2 5 1 15-4 12-5 9-4 2-4-7-3-13v-18l2-17h-3v8l-2 15v8l3 14h-2l-3-4-5 1v14l-4 10-8 11-5 5v33l-5 16-7 15h-2v3h-2v3h-4l-3-10-4-22-3-12-9-7-7-8-6-12-2-6v-15l3-12v-4l-2 2 1-7 2-9v-8l-2-12-1-11-2 4 2 14 1 4v12l-4 13-4 8h-3l-4-5-4-11-1-5v-12l3-10 7-9z" fill="#E4E7F5"/>
<path transform="translate(419,236)" d="m0 0 6 2 9 7 3 3v3h2l1-2 6 16 6 29 3 23v21l-3 15-3 12 1 14 2 10 6 12 3 3 9 2h19l7-3 2-1-1 5 4-1 4 5 10 8 3-1 1-2h2v-2h2l1 12-1 15h11v1h-12l1 13-3-1h-9l-19 9h-13l-8-4-11-10-7-6-7-8-11-12v-6l6-5 2-4-14-2-17-2-3-1 1-5 14-29 14-24 1-5-14-48-4-27-1-16 14 1-3-5-4-1-5 1-1-1v-6h-2z" fill="#E3E6F5"/>
<path transform="translate(974,336)" d="m0 0h1v23l3 8 9 12 1 3v29l-4 31-3 15-3 8-13 36-5 17-4 23-1 64h-1l-1-37-1 34-3 6-3 13 1 13v18l-5 5-5 1-2 5-4 4-2-1v-2l-4 2-2 2h-5l-1-5 4-3 2-4v-9l-2 1-2 9h-1v-16h2v-9l4-8-6 9h-1l1-7 1-6-1-4 6-9-7-2v-5l3 3h11l3-5h2l1-47 3-59v-6l-6-3 3-1 2 1-8-11-13-13-8-7-4-5v-3l2-1h8l16 5-3 1-6-2-15-2 6 8 16 14 9 11v2h2l2-21v-23l-5-48-3-23 2 1 4 28 1 14h2l3-24 2-4-1 27 5 1 17 1h15v-28l-10-14-2-5v-21z" fill="#F2CE96"/>
<path transform="translate(215,683)" d="m0 0 9 1 12 6-2 6-8 18-6 16-5 10-4-2-5-5-10-5-3-1h-14l-6 4-6 7-1 3v10l4 13 8 16 2 5-33-1-8-2v-3l-6-2-6-3-8-9-5-9-2-8v-15l2-6 6-9 7-6 14-6 37-11 21-7 1-1 10-2z" fill="#F9FAFC"/>
<path transform="translate(1011,747)" d="m0 0h13l21 2 1 1 9 97 1 17-1-3-5 3-17 16-11 9-11 10-12 8h-1v-15l10-114z" fill="#E4E7F5"/>
<path transform="translate(89,637)" d="m0 0h19l24 8v4l-42 42-7 8-10 9-15 8-14 4h-18l-8-5-5-6-3-9v-15l3-10 3-6 8-7 4-5 13-8 13-5 21-5z" fill="#FCFDFD"/>
<path transform="translate(451,677)" d="m0 0h11v2l3 1 3 4v2l14-2 9-2 16-1 5 5 9 20 11 30-1 4h-8l-2-2v-3l-14 3-5 5-8 3h-7l-3-3 12-1 7-3 2-2v-8l-11 1-3-3v-5l-14-9-5-2-7 1-4 6-4 13v15l6 9 12 12 4 7v3h-20l-3-2-2-12-2-8h-2l-1 8-5 12-5 7h-3l-12-24-11-19-3-6v-9l12-11 5-5 13-11 6-3 6-4h4v-3l-5-1z" fill="#8CB0ED"/>
<path transform="translate(696,308)" d="m0 0h13l4 20 12 79 3 24v18l-5 8-10 9-17 8h-3l-4-13-4-21-3-27v-59l1-31 2-14z" fill="#F9FBFC"/>
<path transform="translate(910,287)" d="m0 0 4 2 6 10 7 21 5 24 1 9 1 2 1 10 2 9 5 41 2 21v23l-3 21h-2l-6-8-5-6-8-7-10-9-2-5h8l10 2-10-3h-10l-1 2-1 9h-1l-4-41-1-15v-43l3-29 5-28 3-11z" fill="#F8FAFC"/>
<path transform="translate(309,711)" d="m0 0 2 4 34 7 31 5 3 17 5 27 4 16v4h-11l-14-1h-20l-10 3-6 3-4-1-10-8-6-8-4-11v-12l3-8 4-6 8-6 4-2 7-1-3-2-14-4-4-1h-8l-7-4v-2l9 3 6 1v-9z" fill="#E4E7F5"/>
<path transform="translate(1407,290)" d="m0 0 10 3 16 10 6 5-1 7 2-5 4 2 9 13 9 16 9 21 10 27 8 27 2 9v4h2l5 24 1 9-13-1-13-3v-1l11 1 13 2-5-25-5-5-16-8-14-5v-2h-2v-2l9-2h14l1 4-2 3h2l2-7-1-1h-13l-16 2-3-5-7-24-8-31-1-3-1-13-2 6h-8l-8-9-3-4-1-2 2 4 6 8v5l-15 4h-3v-11l6-40z" fill="#F8FAFC"/>
<path transform="translate(965,913)" d="m0 0h3v4l-10 5-33 14-25 10 5-1 33-12 25-11 6-1 1 5-1 59-17 9-10 5-13 5-3 3h-13l-2-8-8-3-5-5-4-5v-23l1-18 2-3 6-1 20-9 25-11z" fill="#FCFDFD"/>
<path transform="translate(180,786)" d="m0 0 3 3 1 4v9l-5 24v16l1 7h2l5 10 11 13 9 11 6 8 1 3v9l-8 16-4-2-6-8-5-1-3-1-3-2-13-5-8-6-7-8-4-9v-17l2-9v-11l-3-5-9-7-6-5v-2h-2l-4-6-1-10 4-8 8-7 7-2h9l12 5 10 9h1v-12z" fill="#E3E7F5"/>
<path transform="translate(907,291)" d="m0 0h1l-1 8-6 36-2 21v43l3 37 1 9 4 2 9 10 8 7 10 10 5 7v2h-3l5 3-2 44-1 21-1 39-1 8-3 2-2 4h-11l-2-2-1 3 8 1-6 10-2 8-2-3h-3l-1-71-5-52-5-51-3-31-1-11v-51l4-40 4-16z" fill="#F7F9FB"/>
<path transform="translate(183,577)" d="m0 0h21l10 5 7 8 4 13v21l-1 10-1 2-4 39-2 4-4-1-12-5-4-6v-3h-2l-15-23-9-15-8-19-2-8 1-9 6-8 5-3z" fill="#FCFDFD"/>
<path transform="translate(1213,664)" d="m0 0h24l2 8 10 114v11l-23 9-11 3-1 59h-1z" fill="#E3E7F5"/>
<path transform="translate(818,126)" d="m0 0h22l10 3 7 6 4 6 6 7 3 13-1 10-3 9-2 3h-4l1 7-3 9-2 2-8 1h-12l-4-2-4-12v-2l-4 1-4 13-5 2h-12l-8-1-3-6v-11l2-1h43l19-1-3-9-2-15-3-1-13 8-5 2h-12l-7-1h-11l-3 11-3 5h-7l-1-7v-17l3-10 6-10 8-7 10-4z" fill="#302F6D"/>
<path transform="translate(1313,980)" d="m0 0 5 2 10 9 5 5 7 2 2 3v8h-361l-56-1 2-4 11-5 6-1 3 1 12 1h10l15-2 4-3h2v12h52l1-5 8-6 3 1h14l14-5 3-1v16h56v-7l3-3 14-1 2-4 8-11h18l6 3 4 4 3 14v5h70l1-5 9-7 2 2h8l11-2 8-4h2z" fill="#AABFE9"/>
<path transform="translate(1075,299)" d="m0 0h9l10 6 12 12 10 14 9 14 8 16 5 11v3h-4v2l-12 5-20 9h-4l-14-26-6-11-7-16-5-17v-13l7-8z" fill="#FAFBFD"/>
<path transform="translate(1376,927)" d="m0 0h1v43l-1 9-1 29h43v1h-76l-2-10-8-3-11-11-8-5 1-9 7-38 2 3 11 4h4l2-4 1 8 19-1 10-4 4-3h2z" fill="#E2E5F4"/>
<path transform="translate(367,872)" d="m0 0h7l11 4 2 2v16l-4 18-6 10-9 10-5 5h-2l2 34v22h13l3 6v8h-20l-7-5-4-8-6-28-5-26v-6l8-8 4-6v-6l-4-8-4-5 1-5 9-12 6-7z" fill="#F9FAFC"/>
<path transform="translate(1349,186)" d="m0 0h7l7 7 7 8 5 4 5 3 18 6 12 9 2 2v8l-6 12h-4l-6 10-10 8-11 5-5 1h-14l-6-4-4-5-4-9-2-10v-10l13 1 3-8 1-5h5 3 20v10l2-1 1-11h-49l1-13 6-14z" fill="#BB7355"/>
<path transform="translate(72,561)" d="m0 0 8 1 7 4 7 7v2h2l12 18 5 9 2 8 3 1 6 12 3 10 4 8 1 4-7-1-17-6h-19l-19 3-19 5-7 3-3-1 12-5 19-5 24-3 4-1-7-4v-3l-5-2-19-11-8-6-5-2-10-9-2-4 1-10 7-10 9-8 6-3z" fill="#F6F8FC"/>
<path transform="translate(1130,476)" d="m0 0 1 4-2 21-6 54-3 34v17l5 14 3 15v15l-3-1-4-6h-1l4 11 2 3v4h-2v2l-5-1-5-5v4h-3l-6-10-2-4v-38l1-22v-41h-2l-4-27-2-11h2l1 2 2-6 5-6h2l1-3 8-7 10-10z" fill="#DCB892"/>
<path transform="translate(1367,381)" d="m0 0 4 2 9 12 1 2 12 3 3 2-7-1-3-1 1 2v27l7 2 15 5 12 5 22 7 21 6 4 2-11-1-8-1-14 4h-4l12 25 5 16 3 22v11h-1l-3-25-4-17-9-21-4-7v-2l-15 3-20 5-2 2-12 2h-7l-3-6-5-18-1 16h-1l-1-30-6-23-3-4-3-10v-3h-2l1-6 10 3 11 3-3-9z" fill="#87A9E7"/>
<path transform="translate(675,771)" d="m0 0h6l3 4 1 3 3 3 5 14 6 22v9l21-7 3 1-10 4-14 5-1 2 16-4 11-2v3l-13 1v2h-6v2h21v1l-24 3h-4l-1 16-3 1v-15l-8-1-1-5-7 1v5l-4 2-4-3h-3l-1 8-9 1-11 3-4-1 4-1v-3l-15 2-4 1v-3l16-2v-3l-17 1v-2h14l-5-13-8-24v-10l2-4 4 1 8 7 9 9 3 1v2l15-6 1-5h2v-11l1-14z" fill="#EE7285"/>
<path transform="translate(191,907)" d="m0 0 5 1 6 7 3 4 5 19 5 23 11 8 11 5 13 4v1l-9-1-10-3-14-9-1-1-7 1-24 15-12 7-5 2-14 1-7-2-7-8v-10l3-8 8-8 11-4 4-1h32l-7-8-13-13-4-6v-6l7-6z" fill="#8CB0ED"/>
<path transform="translate(1434,903)" d="m0 0 4 2 10 14 1 3 9 3 6 4 4 8v7l-4 13-6 9-7 6-13 5-18 4 1 8 4 14v4h144v1l-90 1h-58v-3h2l-10-37-1-6 2 2 2 3 3-7-1-5-6-25 1-2-5 2 5-5 10-9 4-6 4-7z" fill="#D2D8EF"/>
<path transform="translate(127,332)" d="m0 0 8 1 5 5 2 5v11l-2 16-3 12-3 11-36 5-16 1-13-5-8-6-2-4v-9l6-8 5-4 9-3 14 1 18 8 14 7-8-19-3-11v-8l5-4z" fill="#8CB0ED"/>
<path transform="translate(1214,117)" d="m0 0h11l9 2 10 6 6 10 5 6 3 7v14l-3 8-7 8-5-2-3-3-1-22-13 5-5 2h-11l-20-6-19-2-5-5-1-6 3-7 4-4 22-4 16-6z" fill="#F87586"/>
<path transform="translate(584,544)" d="m0 0 8 1 17 4h15l2 14-2 10-6 8-8 5-4 1h-40l-12-6-6-7-2-9 1-12 2-5h9l1 1h9l11-4z" fill="#B8C1D6"/>
<path transform="translate(850,961)" d="m0 0h5l2 3 2 24 4 1v18h-73l-1-17 3-1 2-16 2-4 5 2v2l26-6 20-4z" fill="#FCFDFD"/>
<path transform="translate(919,619)" d="m0 0h1l-1 7-1 6 6-9v3l-3 6-1 9h-2l-1-5-1 1-1 83h-17v16l-11-1-4-1v232h-1l-1-29v-160l1-44h-8l-20-4-18-3-2-7-14-1-1 15-14-1-35-5v241h-1l-1-242-12-1v-7h-19l-1-1v-44h1v43h90l23 1 63 1v-94l2 2z" fill="#353575"/>
<path transform="translate(455,410)" d="m0 0 4 1v2l10 3 4 1h11l7-1 6 11 7 6 16 3 2 6 1 13-3-1h-9l-19 9h-13l-8-4-11-10-7-6-7-8-11-12v-6l7-6 1 3 9-3z" fill="#B9C2D6"/>
<path transform="translate(467,710)" d="m0 0 8 1 15 9 2 4v5h13l1 2v6l-4 4-6 2-11 1 2 1h7l8-3 5-5 8-2h5l1 7-10 8h-3l4 18v4l-9 3-12 2h-12l-5-10-13-13-5-8v-15l5-15 4-5z" fill="#FBFCFD"/>
<path transform="translate(1137,665)" d="m0 0h75v31l-60 8-14 1-1-2z" fill="#4147C5"/>
<path transform="translate(580,956)" d="m0 0h1l1 9v10l5-4 8 16 6 7v2l7 1 6 6v2l3-1 5-8h-13l6-7 7-8 4-6h2v-4h2l1-7 2-7 2 2 4 25 3 13 3 5 4-1 6-6 1-15h1v14h6l5 5v5l-2-1-3-6h-2l4 7v3h11v-12h1l1 11 2 1v-10h1v10h51l57 1v-11h1v10h73l49 1 1-3v2l68 1v1h-672v-1h72l1-4v3h183l-1-8 4-1 13 8 20 1v-6h-2v-3l-8-1-8-6-5-7-1-5 2-12z" fill="#DCE0F3"/>
<path transform="translate(511,782)" d="m0 0h5l4 23 1 14-4 16-8 17-5 6-6-1-8-7-7-11-6-15-4-15v-12l2-9 7-1h13l1 7v-6l3-2h7l1 2v6l-2 2h2l1-7-1-5z" fill="#FBFCFD"/>
<path transform="translate(479,129)" d="m0 0 9 1 2 1v3l5 2 4 5v2l-5 1v12l-2 8-5 10-11 15-6 7v-3l8-18 2-13v-6h-2l-1 9-5 14-9 21-1 10-3 3-7-6-7-10-3-9v-14l5-16 5-13 8-8 7-4 11-3z" fill="#D6DBF1"/>
<path transform="translate(740,288)" d="m0 0h1v86l-1 59-7 11-2 1-2-16-2-9-10-68-2-13v-7h2l1-5 5-12 9-16 7-10z" fill="#F5F8FB"/>
<path transform="translate(527,445)" d="m0 0 13 1v2l4 1 7 8 4 11v2l-2 1-1 3 4 1 3 4 2 8 3 19v3h2l1-2v18l-1 2h-2l-1 3-8 6-5 5-2-1-5-15-9-19-6-19-4-20-2-12 3-1z" fill="#D6DBF1"/>
<path transform="translate(682,323)" d="m0 0h1v90l1 21 3 23-10-2-18-8h-5l-4 1 3-16 14-3 8-7 4-6v-4l-10 13-6 4h-10l-3-8-2-6 1-4 6 5 5-1 11-9 7-5h2l-1-31-9 17-11 12-7 6-5 2-3-9-4-9-2-4 15-9 13-12 9-13 5-7 1-18z" fill="#B6C0D6"/>
<path transform="translate(271,760)" d="m0 0h5l3 15 7 14 8 9 18 9-9 18-7 30-1-2h-3l1 6h-2l-4-16-1-5h-2l-6-14-7-16-6-11-4-4v-2l-5-2-2-1v-2l-11-3-2-4 7-9 8-5z" fill="#FAFCFD"/>
<path transform="translate(223,650)" d="m0 0 17 4 31 8 3 8 8 24 6 16 1 1v5l-6-2-13-7-4-1v-3l-5-1-10-5v-2l-6-1-14-7-5-2v-2l-5-1-1-1v-14l2-14z" fill="#FCFDFD"/>
<path transform="translate(1467,944)" d="m0 0h1l3 9 6 15v3h2l4 13 3 15v8h-61l-6-21v-5l6-2 17-4 12-6 6-7 5-10z" fill="#D6DBF0"/>
<path transform="translate(174,155)" d="m0 0h8l8 7 9 10 9 4 15 4 6 4 1 2-9 19-2 1 1-13-1 2h-2v18l-5-5-9-11-10-13-3-3v-2l-2 1 9 13 11 13 8 9-2 10-4 14-5-2-9-12-7-7-5-8-1-17-6-8-7-9-3-8 2-9z" fill="#8CB0ED"/>
<path transform="translate(1396,288)" d="m0 0 1 3 7-2 3 1-5 32-4 26-35 9h-3l-2-10-2-18-3-22 1-13h2l1-3h4l4 13 7 4h11l7-3 3-5z" fill="#4147C3"/>
<path transform="translate(681,833)" d="m0 0h5l1 5h6l2 1v17l4 1v21l-3 12-8 16-6 7-14 10h-3l2-5 2-14-1-21-3-12-7-17-1-6 1-2h9v-8l4-1 4 3 3-1 1-5z" fill="#F8FAFB"/>
<path transform="translate(1328,894)" d="m0 0 1 3 10 1h25l12-1 1 2v27l-1 10-12 7-4 1h-19l-2-4-5 1-12-5v-9z" fill="#F5F6F7"/>
<path transform="translate(1519,895)" d="m0 0h10l4 4v11l-3 14-1 5 3-1 2-5 1 3 13-9 11-5 6-1 10 3 6 5 3 5v7l-7 8-10 5-8 2h-36l-8-19-4-12v-16l4-3z" fill="#8CB0ED"/>
<path transform="translate(624,921)" d="m0 0 4 4 5 10 1 4v16l-2 9-2 7h-2v4h-2l-2 4-7 9-7 7h9l3 1-2 5-3 4h-3l-6-7-7-2-10-14-4-9 1-5 6-10 4-12 1-7 16-4 4-3h2l-1-5-3-1v-2l6 1z" fill="#F07284"/>
<path transform="translate(918,1044)" d="m0 0h15l13 17 10 13 4 4v-34h14v57h-11l-5-3-8-9-13-17-4-5-1 34-14-1z" fill="#8CB0ED"/>
<path transform="translate(561,382)" d="m0 0h11l6 2h35l6 8v7l-4 5-11 7-4 4-2 5-2 12-4 4h-6l-10-9-7-8-8-20-5-5-3-2 1-5 4-4z" fill="#FBFCFD"/>
<path transform="translate(1008,285)" d="m0 0h4l5 20 1 2 9-1 10-5 4-4h4l2-5 4-7h6l10 4 11 6 13 6 9 7 9 10 10 15-1 2-8-11-8-10-9-9-9-5h-9l-7 6-2 2 1-4 5-5 4-2-6-4-9-3v21l-3 5-4-1 4-2 1-25h-7l-12 23-11 19-14 24-9 16 2 2-3 2-1 10h-1l-3-23-3-12v-5l2 4 1 5 1-25 4-27 4-14-6 1-1 5-3 3 2-5 1-2-17 8-9 7-4 5-4 4-8 18-1-4 6-14 9-10 8-7 16-8z" fill="#EF7183"/>
<path transform="translate(645,468)" d="m0 0 2 1-3 17-8 24-11 25-5 10v2l3 2-14 1-21-5-9 1-11 4h-9v-4l-3-1h12l14-4h9l16 4 11 1-6-8-5-6-2-13 2-23 4-13 6-8h12l14-5z" fill="#D6DBF1"/>
<path transform="translate(780,271)" d="m0 0h2l-1 10-3 16 5 2 7 4 1 4-1-5-10-6v-7l4-18 4 1 10 19 17 34 8 15v2l-5-1-13-10-5-3 3 9 7 15 1 5v9l-7 5h-5l-1-4 10-1-1-13-4-10v-2h-2l-2-4-9-7-3-2h-6l-4 4-5 12h-3l-1-3v-13l3-13 1-2v-8l-1-4v-18l2-10z" fill="#F1CD95"/>
<path transform="translate(331,61)" d="m0 0 5 1 10 3 6 1-5 4-4 9-1-3 1-7h-2l-1-2-2 3-11 3-5 2-1 2 10 1 5 5v7l-3 5-13 13-19 13-1 1 11 1 1 6 4 5v2l-5-1-3-5-2-4h-13l-10 5-6-1-13 9-4 3-2-1 9-11 4-5 1-3-3-1 14-15 17-16 9-8 7-6 6-12z" fill="#8BAEEC"/>
<path transform="translate(1051,1044)" d="m0 0h31l8 7 3 7v9l-7 8-4 2 3 6 11 14 1 3h-17l-10-15-4-4v20h-15z" fill="#8EB1ED"/>
<path transform="translate(833,1044)" d="m0 0h29l6 3 5 6 2 6v8l-3 5-7 5h-2l4 7 11 13 1 3h-17l-8-11-5-7-2-1v19h-14z" fill="#8CB0ED"/>
<path transform="translate(256,998)" d="m0 0 5 3 3 7-8 2-14 10-12 9-15 9-7 3h-10l-5-3-4-5-1-5v-11l3-8 7-5 18-3 22-2z" fill="#8CB0ED"/>
<path transform="translate(533,237)" d="m0 0h4v9l-6 5-1 6 1 2-1 17-5 23-7 24-9 33-1 10h-1l-2-10-4-16v-22l6-38 4-17 6-14 4-7 1 2 6-4 4-2-1 6 3-1z" fill="#D5DAF0"/>
<path transform="translate(1e3 1044)" d="m0 0h17l3 5 5 15 3 8 10 26v2h-16l-2-8-23-1-1 8-1 1h-15l3-10 15-39z" fill="#8DB0ED"/>
<path transform="translate(413,889)" d="m0 0 24 6 2 62 2 22 1 7v11l2 2-7-1-8-1-1-1-10-71-5-33z" fill="#B9C2D6"/>
<path transform="translate(1133,209)" d="m0 0 16 1 20 4 13 3 4 5 5 8 1 3v22l-5 2-18 2-6-11-5-6-6-4v-2l-6-2-3-2v-2l-4-2-4-5-2-5-4-4 1-4z" fill="#E4E7F5"/>
<path transform="translate(429,708)" d="m0 0 10 2 10 30 1 4v10l-2 12-6 12-3 4h-3l-12-24-11-19-3-6v-9l12-11z" fill="#6B8EC5"/>
<path transform="translate(473,614)" d="m0 0h4v2l5 1 6 5-3 2-15 5 11 5 1 2v9l-2 5-3 3-6 8-13 9-12 7-8 4-10 3h-5l2-5 10-19 5-8 9-11 12-11 5-8 5-6h2z" fill="#F77786"/>
<path transform="translate(759,1119)" d="m0 0h8l9 4 7 8 3 9v8l-6 10-9 6-3 1h-12l-9-4-6-7-2-5v-13l4-8 6-6z" fill="#F8FAFB"/>
<path transform="translate(1304,558)" d="m0 0h1v15l-3 56-3 68 3 1h-5v-13l-20 2-30 4h-7l-2-19v-8h61v-18l2-45-21-6-4-2v-15l1-16 2-1v20l-1 12 11 2 13 4v-11z" fill="#4147C5"/>
<path transform="translate(698,220)" d="m0 0h3l2 4 2 18-1 4 4 12 2-2 4-9 5-1v14l-3 14-7 16-1 6-15 2h-8l-4-13-3-10v-7l6-9 4-2 2-4 6-1 4 4 3 6 2 5v-9l-5-9-5-2v-2l3-1-2-3 1-20z" fill="#F4D096"/>
<path transform="translate(1300,286)" d="m0 0 4 1h16l5 4 3 5 5 1-1 4-11 9-1 1 1 9 6 20-1 4-8-27-1-1-5 11-5 18-4 15h-2l-1 7-4 14h-1l-1-13v-34l3-32z" fill="#88ABE9"/>
<path transform="translate(419,236)" d="m0 0 6 2 9 7 3 3v3h2l1-2 4 10-1 8 4 20 4 28 1 6v17l-1 6-5 3-4-9-5-20-4-13-4-14-3-17-1-7v-16l-2-1h11l-3-5-4-1-5 1-1-1v-6h-2z" fill="#D5DAF0"/>
<path transform="translate(1079,360)" d="m0 0 4 5 7 12 4 8-1 7-2 8-1 9h5v10l-4 49-4 6-2-2-6-22-2-12-1-11v-45l2-11v-9z" fill="#DEE3F3"/>
<path transform="translate(635,1044)" d="m0 0h16l4 8 4 12 4 10 1 3 2 1 1-5 12-29h15l-3 9-7 16-5 11-4 11-4 9h-13l-8-21-9-21-5-12z" fill="#8DB0ED"/>
<path transform="translate(517,847)" d="m0 0h2v20l-5 47-16 5-9 5h-2l-2-18-1-12v-10l3-1 2 1 2-4 9-6 4-3h2l2-4 5-8z" fill="#6C8FC6"/>
<path transform="translate(703,1044)" d="m0 0h32v11l-1 1h-17v10h17v12h-17v10l18 1v11h-32z" fill="#8CB0ED"/>
<path transform="translate(1394,258)" d="m0 0h2v35l-3 10-6 5-4 1h-11l-8-5-3-9v-23l6-2 15-4 11-7z" fill="#BD7355"/>
<path transform="translate(779,270)" d="m0 0h5l-1 9-2 10v7l10 6 1 5-2 3-1-7-11-6 1-11 3-15-10 4-13 4-15 7-1 28-3 275-1 68-1 12h-1v-90l1-82v-55l-5 4-7 11-9 8-10 6-10 4h-5l-4-13-4-20-1-8v-10h1l4 28 5 20v2l14-6 10-6 7-7 3-6v-18l-3-24-13-85-2-14-13 1h-11v8l-1 6h-1v-15l18-2h9l4 20h2l2-5 7-14 9-14 7-8 14-7 19-7zm-39 18-6 8-8 13-6 12-3 7v4h-2l1 14 9 60 3 21 2 10 1 8 5-5 4-7 1-59v-86z" fill="#58486E"/>
<path transform="translate(790,1044)" d="m0 0h31v11l-17 1-1 10h17v12h-17v10l18 1v11h-32v-34z" fill="#8CB0ED"/>
<path transform="translate(365,970)" d="m0 0 14 8 21 9 27 9 10 1 9 2 7 6v2h-71l-5-14-2-1-10-1z" fill="#FAFBFD"/>
<path transform="translate(1048,264)" d="m0 0h1l1 10 10 3h15l12-2h11l5 5 11 9 4 3-1 5-6 16-1 4-4-1-7-8-9-7-12-5-11-6-10-4h-7l-2-11z" fill="#E3E7F5"/>
<path transform="translate(1138,463)" d="m0 0 1 2-1 2-4 96-1 33h-1l-1-31h-1l-2 33v37l-2-4-4-18-3-7v-17l3-34 4-34 3-27 1-14 3-9z" fill="#DFE3F2"/>
<path transform="translate(1549,965)" d="m0 0h8l6 4 4 5 3 6v8l-7 6-10 3-16 1-15-1-5-1 1-11 3-5 17-10z" fill="#8CB0ED"/>
<path transform="translate(822,292)" d="m0 0h6l7 4-2 4-4 2 2 12 1 16-5 11 17-13 14-10h2l-3-10v-5l2 1 1 6 2 3v5l-18 13-16 12h-2v331h-1l-1-97-1-232-2-3h2l-6-12 1-11 2-18-4-2v-4z" fill="#3C4180"/>
<path transform="translate(1052,287)" d="m0 0 7 1v25l-4 2-3 3-8 2 1 6 4 9-2 4-11 9-10 9-16 14-5 1 2-5 15-27 11-19 14-25z" fill="#F6F8FB"/>
<path transform="translate(1101,1044)" d="m0 0h17l9 13v2l5-5 6-9 1-1h17l-6 9-13 18-1 1-1 21-1 7h-13l-1-28-13-18-6-8z" fill="#8CB0ED"/>
<path transform="translate(487,194)" d="m0 0h2l1 15 1 2v16l-5 16-7 15h-2v3h-2v3h-4l-3-10-4-22-2-9v-5l6-2 8-11z" fill="#FAFCFD"/>
<path transform="translate(288,953)" d="m0 0 3 4v2h2l6 17 4 16 5 13v2l-12 1v1h-38v-1l5-1-4-7-3-1h-10v-1h7l-7-8-9-9-6-5 4-1 9 3 13 2 5 3 1 2 1 13 3 5 2 2v3l22-1v-14l-10-1-1-1 1-11 5-22z" fill="#F6F8FC"/>
<path transform="translate(848,156)" d="m0 0 4 2 3 20 2 5-20 1h-45v8l-8-3-1-5 5-2 6-1 6-15 2-1h9l7 1h12l12-6z" fill="#E9C491"/>
<path transform="translate(1333,867)" d="m0 0h8l18 6 10 6 7 6v12l-12 2h-25l-10-2v-9l3-13z" fill="#FBFCFC"/>
<path transform="translate(1258,959)" d="m0 0 3 1 3-1 2 29h20l-5 6h-2l-2 4-6 4-2 5h-62v-1h30l3-11 11-25 6-10z" fill="#E3E6F5"/>
<path transform="translate(753,982)" d="m0 0h6l-2 5-8 10-15 1-1 9h-52l-1-13 2-1 24-3 29-4z" fill="#FAFBFC"/>
<path transform="translate(1168,981)" d="m0 0h18l6 3 4 4 3 14v6h-58v-8l3-3 14-1 2-4z" fill="#302F6E"/>
<path transform="translate(91,447)" d="m0 0 7 2 16 9 17 10 15 9 15 10 19 14 14 12 12 11 9 8 7 8 11 13 1-1 2-34 1-30 1-8h2v23l-2 40v16l13 19 3 5 5 9v2h2l5 8-1 4-3-1-8-16-3-5v-2h-2l-10-14-11-13-11-12-21-21-8-7-12-11-20-15-14-9-29-17-18-10-6-4z" fill="#E5E8F6"/>
<path transform="translate(736,673)" d="m0 0h1v43h21l67 1v1h-5l-1 15-14-1-35-5v241h-1l-1-242-12-1v-7h-19l-1-1z" fill="#353686"/>
<path transform="translate(762,981)" d="m0 0h18l5 5v2l3 1 1 4v15h-57l2-10 3-1 12-1 8-10z" fill="#302F6E"/>
<path transform="translate(1349,292)" d="m0 0h3l4 27 2 15 1 13v11l-8 3h-3v-4h-2l-6-10 1-4 2-5 5-7-6-2-8-5v-8l1-5v-13z" fill="#E9ECF3"/>
<path transform="translate(742,1044)" d="m0 0h38v11h-12v45h-14v-44h-12z" fill="#8CB0ED"/>
<path transform="translate(1313,980)" d="m0 0 5 2 10 9 5 5 7 2 2 3v7h-74l3-7 9-6 1 2h8l11-2 8-4h2z" fill="#302F6E"/>
<path transform="translate(872,981)" d="m0 0h17l3 2v2l3 1 6 7v2l10 3 1 1v9h-49v-15l1-6z" fill="#30306F"/>
<path transform="translate(1434,903)" d="m0 0 4 2 10 14 1 3 9 3 6 4-1 2-6-4-3-1h-10l-8 8-12 21-4 10-2 1 1-8-2-5-5-22 1-2-5 2 5-5 10-9 4-6 4-7z" fill="#CED6EE"/>
<path transform="translate(679,345)" d="m0 0h1v23l-10 19-11 12-7 6-5 2-3-9-4-9-2-4 15-9 13-12 9-13z" fill="#B9C2D6"/>
<path transform="translate(340,66)" d="m0 0 1 3h2v10l1 6v16l-4 10-9 8-11 4v4l4 8-5-1-1-4-5 1-3-4v-3l-11-1 5-5 17-12 13-13 1-3v-7l-4-4-10-2 1-3 7-3 9-2z" fill="#E6E9F1"/>
<path transform="translate(798,266)" d="m0 0 4 2 9 10 12 9 4 5-11 3 2 5 2 1v10l-3 18-3-4-26-52-4-2v-2z" fill="#8AAEEB"/>
<path transform="translate(516,106)" d="m0 0 5 2 5 4 9 12 2 5 1 15-4 12-5 9-4 2-4-7-3-13v-18l2-17h-3v8l-2 15v8l3 14h-2l-4-6-2-6v-9l5-22z" fill="#B9C2D6"/>
<path transform="translate(1286,596)" d="m0 0 13 4-1 14-8 21-7 5-1 6-4-1-6-4-2-4-1-13 3-10 6-9 6-8z" fill="#BC7355"/>
<path transform="translate(1400,925)" d="m0 0h1v9l4-1-2 3 7 19 2 5 4 16 7 26v4l-3 1v-2h-2l-1 2-3-5-13-12-4-7v-23z" fill="#E0E3F2"/>
<path transform="translate(438,106)" d="m0 0h3l1 14 4 15v8l-5 12-3 3 1-7 2-9v-8l-2-12-1-11-2 4 2 14 1 4v12l-4 13-4 8h-3l-4-5-4-11-1-5v-12l3-10 7-9z" fill="#B9C2D6"/>
<path transform="translate(1110,407)" d="m0 0 8 10 2 8-2 7-9 12-1 2h-2l-2 5-8 11h-4v-15l2-28 1-8 1-1h13z" fill="#E0BC95"/>
<path transform="translate(1172,326)" d="m0 0h6l2 1-1 7h16l1 22-1 1h-37v-23l14-1z" fill="#F6F8FB"/>
<path transform="translate(862,271)" d="m0 0 4 1 4 21-1 3-10 7h-2l3 15-12 8-13 10-6 5h-2l1-5 12-23 18-35z" fill="#F6F8FB"/>
<path transform="translate(501,681)" d="m0 0h6l5 5 9 20 11 30-1 4h-8l-2-2v-3l-14 3-5 5-8 3h-7l-3-3 12-1 7-3 2-2v-8l-11 1-3-3v-3l10-5 4-1 4 2-2 5 1 9 10-2 1-1v-11l-4-6-4-2-3-3-2 3-4-1-2-4 3-2h4l-3-7v-3h-2v-2h-2l-2-6-2-5z" fill="#7092CA"/>
<path transform="translate(784,271)" d="m0 0 4 1 10 19 17 34 8 15v2h-2v-2l-4-2-16-12-10-8-1-1v-7l1-7-11-7v-7z" fill="#F7F9FB"/>
<path transform="translate(337,948)" d="m0 0h1l9 44 4 10 4 5h-35l-1-2 5-10 7-28 1-7 4-8z" fill="#F2F5FA"/>
<path transform="translate(481,885)" d="m0 0 3 1 3 32 1 7-11 9-8 10-4 7h-1l1-22 3-27 3-12z" fill="#E3E6F5"/>
<path transform="translate(1533,946)" d="m0 0h17l7 2-1 9-4 6 3 2-9 2-19 10-6 4h-2v-22l3-7 1-5z" fill="#E4E7F5"/>
<path transform="translate(573,824)" d="m0 0 8 1 3 3 1 4v10l-1 10-1 1-1 7h-2l6 13 4 12v10l3-1v2l-3 2-4 1-8-14-1-3h-2l5 14v7h-1l-3-12-6-10-10-12 4-2-5-4-2-1 1-2 6 2 1-13 16 2 1-5v-14l-3-5h-6l-5 5 1-5z" fill="#B8C0D3"/>
<path transform="translate(986,199)" d="m0 0h5v24l3 17 6 16v2l-6-1-13-12-5-9h-1l4 11 6 7v2l-5-1-6-11-2-6 1-19 4-10z" fill="#434AC4"/>
<path transform="translate(759,1119)" d="m0 0h8l9 4 7 8 3 9v8l-6 10-9 6-3 1h-12l-9-4-6-7-2-5v-13l4-8 6-6zm-2 7-5 3-5 5-1 3v11l4 6 5 4 2 1h10l6-4 4-5 1-2v-11l-4-7-7-4z" fill="#33326F"/>
<path transform="translate(1103,546)" d="m0 0h1l1 14v27l-1 22-1 41-2 33-1 6-104 1-40-1-2-42-1-34-1-7-1-4 1-34 1-17h1l1 54 3 81 2 1h36l-2-18-1-17-1-7v-53l1-16 2-12h1v99l2 25h101l1-31 2-54z" fill="#333370"/>
<path transform="translate(294,799)" d="m0 0 5 2 13 6-9 18-7 30-1-2h-3l1 6h-2l-4-16-1-5h-2l-6-14 1-3 3 3 2-5 6-7 3-12z" fill="#E4E7F5"/>
<path transform="translate(633,957)" d="m0 0 2 2 4 25 3 13 3 5 4-1 5-5 5 1 3 10h-25l-6-12 5 1 2 4v3-4l-2-4-6-1h-3l3 1 3 7v5h-16l1-5 4-6h-13l6-7 7-8 4-6h2v-4h2l1-7z" fill="#DFE3F3"/>
<path transform="translate(1030,530)" d="m0 0 11 1 14 3 27 4 3 9 1 7-12-1-39-6-5-2z" fill="#F4F6F9"/>
<path transform="translate(1327,344)" d="m0 0 2 2 6 22v62l-2 22-5 15-7 11-7 18-1-3 3-9 5-37 7-36 4-27v-19l-5-18z" fill="#DAAE88"/>
<path transform="translate(1367,381)" d="m0 0 4 2 9 12 1 2 12 3 3 2-7-1-3-1 1 2v25h-1v-9l-14-1-14-5-4-5-3-10v-3h-2l1-6 10 3 11 3-3-9z" fill="#B87156"/>
<path transform="translate(823,1119)" d="m0 0 4 2 17 17 8 7 5 5v-30h5l1 1v44l-4-2-19-19-8-7-1-1-1 28h-7z" fill="#353776"/>
<path transform="translate(1407,290)" d="m0 0 10 3 2 2 4 23-14 9 2 4 6 8v5l-15 4h-3v-11l6-40z" fill="#F5F7FB"/>
<path transform="translate(889,1044)" d="m0 0h14v56h-14z" fill="#8CB0EE"/>
<path transform="translate(483,624)" d="m0 0h6l2 1v6l-1 2h-2l1 7 1 3v13l-5 9-8 7-5 3-7 2-20 1 4-4 14-8 10-8 5-8h2l1-5v-9l-1-2-11-4 1-2z" fill="#F9FBFC"/>
<path transform="translate(338,901)" d="m0 0 3 1 7 11v7l-8 10-4 4v8l-4 2-5-5-10-11-2-5-2-1 17-13z" fill="#E3E7F5"/>
<path transform="translate(512,771)" d="m0 0 5 1 1 2v6l-7 3-3 1 1 10-2 3h-9v-1l7-1 1-1v-8l-9 2v8l-2-1v-8l-13 1h-10l-17-2-3-2 1-9 6 1h32l16-3z" fill="#F57986"/>
<path transform="translate(1419,295)" d="m0 0 8 4 12 9-1 7-5 20-2 1-2 6h-8l-8-9-3-4 2-5 10-6-3-18z" fill="#E3E6EF"/>
<path transform="translate(1039,1120)" d="m0 0h10l10 1 5 5 1 3v7l-3 5-5 3h-12v20h-6z" fill="#31306F"/>
<path transform="translate(1353,919)" d="m0 0 9 1 14 7v9l-12 7-4 1h-19l-1-2 1-9 6-10z" fill="#FCFDFD"/>
<path transform="translate(727,420)" d="m0 0h1l3 17 1 7 7-6h1l1 22v45l-2 152-1 12h-1v-90l1-82v-55l-5 4-7 11-9 8-10 6-10 4h-5l-4-13-4-20-1-8v-10h1l4 28 5 20v2l14-6 10-6 7-7 3-6z" fill="#6A7EB2"/>
<path transform="translate(857,339)" d="m0 0h11l8 7 1 2v9l-5 7-7 3-8-1-6-4-3-6 1-9 5-6z" fill="#F5F7FB"/>
<path transform="translate(1405,895)" d="m0 0 5 1v15l2 9v8l-1 1h2l2 12 4 15 1 5-4 9-2-2-9-24-3-9 1-1h-2v-18l2-18z" fill="#E3E6F5"/>
<path transform="translate(1234,281)" d="m0 0 1 2-14 33-2 4h-2l-4-10-7-16-4-10 1-2h26z" fill="#FAFBFD"/>
<path transform="translate(1024,180)" d="m0 0h11l5 3 3 4 1 3v8l-4 6-3 3h-12l-5-3-3-5-1-2v-7l3-6z" fill="#F5F7FB"/>
<path transform="translate(682,323)" d="m0 0h1v101h-1v-8h-2l-1-4-10 13-6 4h-10l-3-8-2-6 1-4 6 5 5-1 11-9 7-5h2v-57l1-18z" fill="#98A3C3"/>
<path transform="translate(977,1120)" d="m0 0h24v6h-18l1 10 17 1v7h-17l-1 14h18v6h-24z" fill="#313071"/>
<path transform="translate(920,1119)" d="m0 0h9l9 4 1 7-4-1-4-2h-13l-5 3-4 7v10l3 6 5 4 2 1h11l6-4h2v6l-3 3-4 2h-13l-7-3-6-5-4-9v-11l3-7 7-8z" fill="#31316E"/>
<path transform="translate(684,1119)" d="m0 0h7l10 3 1 1v7l-4-2-3-1h-14l-6 5-2 5v11l4 6 6 4h11l6-3h2v5l-5 4-3 1h-12l-9-4-6-7-2-5v-13l5-10 7-5z" fill="#32316F"/>
<path transform="translate(656,980)" d="m0 0h1v14h6l5 5v5l-2-1-3-6h-2l4 7v3h11v-12h1l1 11 2 1v-10h1v10h51l57 1v-11h1v10h73l49 1 1-3v2l68 1v1h-301l-37-1v-1h19l-4-10-3-2z" fill="#B1C2E4"/>
<path transform="translate(580,956)" d="m0 0h1l1 9v10l5-4 8 16 6 7v2l7 1 6 6v2h3v2h16l-3-12-4-1 4-1 6 1 4 8-2 1-2-7h-4l6 12h-36l-1-6-2-1v-3l-8-1-8-6-5-7-1-5 2-12z" fill="#ADB5CC"/>
<path transform="translate(300,429)" d="m0 0h4l6 14 9 27 4 22 2 18v41l-6 36-4 16-2 12-2-3-1-5 4-16 5-25 3-25v-19l-2-24-3-19-6-21-11-28z" fill="#DEE2F3"/>
<path transform="translate(510,370)" d="m0 0 5 2 10 7 8 5-2 5-5 12-2 5-4-2-12-9-1-5 2-9z" fill="#B9C2D6"/>
<path transform="translate(1425,979)" d="m0 0h10v8l6 7v2h2l5 5 4 3v3h-27l-6-21v-5z" fill="#E4E7F5"/>
<path transform="translate(555,877)" d="m0 0h2l7 13 2 2-1 7-5 12-5 3-11 2-2-3 4-15 8-19z" fill="#F67986"/>
<path transform="translate(85,327)" d="m0 0 8 1 7 8 8 17 1 8-6-2-11-7-9-8-5-10 2-4z" fill="#8DB0ED"/>
<path transform="translate(146,921)" d="m0 0h7l11 7 7 7 7 5v2l3 1-2 1-20-1-11-4-8-5-1-1v-6z" fill="#8DB0ED"/>
<path transform="translate(988,995)" d="m0 0h2v13h-65l2-4 11-5 6-1 3 1 12 1h10l15-2z" fill="#302F6D"/>
<path transform="translate(1374,936)" d="m0 0h2v23l-5 1h-14l-8-6-4-4v-2h-2l-1-4 18-1 10-4z" fill="#E4E7F5"/>
<path transform="translate(340,901)" d="m0 0 3 1 5 7 2 5v6l-7 9-5 5 1 12 9 45 4 9 5 5 2 1 20 1-2-10-1-4h-13l-2-38v-18l8-7 8-9 5-9 1 3-6 10-13 13h-2l3 45v8h10l4 4 2 7v6l-85 1-2-2h14l-6-15-3-10 1-3 9 24v4l11-1h34l-5-6-4-13-10-49 1-5 10-11 1-2v-7l-7-11z" fill="#9BB6E7"/>
<path transform="translate(1e3 287)" d="m0 0h4l-1 7-3 12-3 22-1 26-2-1-1-9h-2l-4-17 1-5 6-8-4-2-4-3 2-5 5-8 4-4 1-4z" fill="#BDC1D7"/>
<path transform="translate(1375,991)" d="m0 0 11 4 14 2h5l2-2 10 9 1 4h-43z" fill="#302F6D"/>
<path transform="translate(1083,991)" d="m0 0h1v17h-42l1-6 8-6 3 1h14l14-5z" fill="#302F6D"/>
<path transform="translate(231,975)" d="m0 0 8 1 5 2 13 2 5 3 1 2 1 13 3 5 2 2v3l25-1 2 2h-38v-1l5-1-4-7-3-1h-10v-1h7l-7-8-9-9-6-5z" fill="#F5F7FB"/>
<path transform="translate(502,148)" d="m0 0 3 1v17l-4 10-10 14-12 13-6 7-5 7-4-1 5-7 6-11 8-11 11-15 1-2h2l1-4 2-3v-4h2l-1-6z" fill="#D6DBF1"/>
<path transform="translate(500,407)" d="m0 0h2l5 5 8 7 3-1 3-3h1v9l-2 9h-11l-8-5-6-9-1-6z" fill="#B9C2D6"/>
<path transform="translate(1179,332)" d="m0 0h23v27l-1 1h-46v-27h11v1h-8v23l37-1v-22h-16z" fill="#6F8DCA"/>
<path transform="translate(632,447)" d="m0 0h6l7 5-1 6-7 9-9 4h-7l-2-2 1-7 5-10 5-4z" fill="#8DB0ED"/>
<path transform="translate(974,336)" d="m0 0h1v23l3 8 9 12 1 3v29l-1 9h-1v-8l-23-1h-17v16l-1 17h-1l-6-56-3-23 2 1 4 28 1 14h2l3-24 2-4-1 27 5 1 17 1h15v-28l-10-14-2-5v-21z" fill="#636495"/>
<path transform="translate(1129,564)" d="m0 0h3v64l-1 7-2 28-3-1-2-6-4-9-1-5 4 2 3 5 2 1-1-21v-36l1-9z" fill="#F9FBFC"/>
<path transform="translate(1097,1120)" d="m0 0h30v6l-11 1-1 37h-6v-38h-12z" fill="#302F6D"/>
<path transform="translate(496,358)" d="m0 0 5 1 5 6 1 9-1 8-12 13-2 1-3-2v-10l5-11z" fill="#6B8EC5"/>
<path transform="translate(390,238)" d="m0 0 3 1-10 9-14 11-13 12-25 25-7 8-9 10h-2l1-5 12-14 8-8 1-2h2l2-4 9-9 8-7 10-9 10-8z" fill="#D6DBF1"/>
<path transform="translate(1327,344)" d="m0 0 2 2 6 22v62l-2 22-5 15-7 11-7 18-1-3 3-9 5-37 7-36 4-27v-19l-5-18zm5 54-4 21-5 27-1 12-2 9-1 10 4-5 1-5h2l4-9 3-15 1-14v-22l-1-9z" fill="#42396C"/>
<path transform="translate(1553,885)" d="m0 0h6l3 3-1 8-4 6-5 6-10 7-5 4 3-9 4-17 6-7z" fill="#8CB0ED"/>
<path transform="translate(824,577)" d="m0 0h1l1 17h1v122l-2 1h-67v-1h66z" fill="#92ABD6"/>
<path transform="translate(533,447)" d="m0 0h7l5 3 5 8 2 12-9-1-7-3-7-8-2-4 1-4z" fill="#8DB0EC"/>
<path transform="translate(794,185)" d="m0 0h27l-2 11-3 4h-17l-4-4-1-2z" fill="#EDC792"/>
<path transform="translate(517,250)" d="m0 0h2l2 5-1 3h-2l-2 9-3 10-6 32-2 11-1 16-1 5-2-1v-22l6-38 4-17 5-12z" fill="#E3E6F5"/>
<path transform="translate(832,185)" d="m0 0h26v8l-3 6-3 1h-16l-3-4-2-10z" fill="#ECC590"/>
<path transform="translate(573,826)" d="m0 0h6l3 3 1 3v14l-2 5h-10l-5-2 1-3v-9l3-8z" fill="#F9FBFC"/>
<path transform="translate(450,755)" d="m0 0h2l4 12 1 8h-4l-2 12-7 4h-7l-1-6 9-14 4-11z" fill="#F7F9FC"/>
<path transform="translate(457,358)" d="m0 0h3l1 11 6 14 1 3v8l-1 2-4-1-7-7-3-12-2-7 4-9z" fill="#6B8EC5"/>
<path transform="translate(876,273)" d="m0 0 6 1 2 7 1 8v12l-2 16-5 16-4 9-5-1 2-1 3-11 4-16 1-8v-16z" fill="#F4D097"/>
<path transform="translate(1e3 384)" d="m0 0h1l1 16 1 6 1 28v31l-1 24-1 3-3 28-1 6h-1v-14l2-11 1-27z" fill="#91A8D0"/>
<path transform="translate(1094,387)" d="m0 0 5 5 6-1 1 7 4 8-1 5h-14v-2h-5v-9l2-8z" fill="#91B2EB"/>
<path transform="translate(1405,895)" d="m0 0 5 1v15l2 9v8l-5 5-6 1v-18l2-18z" fill="#E1E5F3"/>
<path transform="translate(616,549)" d="m0 0h8l2 14-1 6-2-3-1-13h-3l-2 15-3 6-2 1h-6l-2-2 1-11 8-11z" fill="#8CB0ED"/>
<path transform="translate(565,998)" d="m0 0 5 1 11 7 20 1v-5h1v6l41-1 37 1v1h-138l2-2h21l-1-8z" fill="#D4DAEF"/>
<path transform="translate(504,393)" d="m0 0 4 4-4 4v5l8 1 10-1 4 1v9l-1 5h-2v-7h-2v2h-2l-2 4-5-2-10-9-1-2h-4l1-6 1-2h2l1-5z" fill="#F9FAFC"/>
<path transform="translate(421,196)" d="m0 0 3 1-2 10-4 18 6 2 7 7 5 8 3 6v3h-2l-3-5-10-8-5-2-1 4-3-1v-16z" fill="#E2E5F4"/>
<path transform="translate(1468,940)" d="m0 0 3 4 9 22 2 5 14-29h3l-3 9-9 19-2 6v8l3 17v5l-2-1-5-24-2-5v-5h-2l-7-18-2-4z" fill="#E5E8F6"/>
<path transform="translate(1304,558)" d="m0 0h1v15l-3 56-3 68 3 1h-5v-15l2-37 2-45-21-6-4-2v-15l1-16 2-1v20l-1 12 11 2 13 4v-11z" fill="#313072"/>
<path transform="translate(508,707)" d="m0 0 4 5 5 3 3 5v11l-5 3h-7l-2-5 1-5 1-4-6-3v-4l3-1z" fill="#F7F9FC"/>
<path transform="translate(1298,284)" d="m0 0 2 2-2 16-3 32v34l1 10 5-18h1v9l-5 29-2 14-2 4v-88l4-36z" fill="#4D5DB8"/>
<path transform="translate(1412,963)" d="m0 0 2 2 4 12v3l2 1 1 8 4 14v4h144v1l-90 1h-58v-3h2l-10-37z" fill="#9EB7E4"/>
<path transform="translate(904,468)" d="m0 0h1l10 97 2 22v12h-1l-1 20-2 1-1-48-2-33-6-60z" fill="#323273"/>
<path transform="translate(552,548)" d="m0 0 5 1 9 10 4 9-1 6-3 2h-6l-4-4-1-18-5-2z" fill="#8AAEEC"/>
<path transform="translate(573,824)" d="m0 0 8 1 3 3 1 4v10l-1 10-3 7-1-3h-4v5l-5 5h-3l-3-3v-14l16 2 1-5v-14l-3-5h-6l-5 5 1-5z" fill="#F38088"/>
<path transform="translate(857,339)" d="m0 0h11l8 7 1 2v9l-5 7-7 3-8-1-6-4-3-6 1-9 5-6zm2 3-6 5-1 2v8l5 5 4 2 6-1 5-4 2-4-1-7-5-5-2-1z" fill="#8BAEEA"/>
<path transform="translate(1051,285)" d="m0 0h6l10 4 11 6 13 6 9 7 9 10 10 15-1 2-8-11-8-10-9-9-9-5h-9l-7 6-2 2 1-4 5-5 4-2-6-4-9-3v21l-3 5-4-1 4-2 1-25h-7l-7 13-1-4z" fill="#5061A3"/>
<path transform="translate(435,658)" d="m0 0 1 2-8 16-4 7-1 2-5 1-4 4-9 5h-2l2-4 9-11 9-10 4-5z" fill="#7395CB"/>
<path transform="translate(1375,794)" d="m0 0h1v88l-3-4-4-14-1-6v-11l7-1z" fill="#D1C7C0"/>
<path transform="translate(953,551)" d="m0 0h1l1 54 3 81 2 1 34 1v1h-38l-2-42-1-34-1-7-1-4 1-34z" fill="#302F6D"/>
<path transform="translate(1516,997)" d="m0 0h21l5 1-3 4-1 4h32l-1 2-57-2 2-1-1-3z" fill="#E3E6F5"/>
<path transform="translate(386,454)" d="m0 0 2 3v19l-1 33-2 18-5 23h-3l1-8 4-20 1-7 2-57z" fill="#E0E3F4"/>
<path transform="translate(1321,933)" d="m0 0h1v52l-9-5 1-9z" fill="#89ACE9"/>
<path transform="translate(552,147)" d="m0 0h8l86 19 13 3v2l-9-1-30-6-43-10-25-6z" fill="#D9DDF2"/>
<path transform="translate(300,429)" d="m0 0h4l6 14 9 27 4 22 1 12h-2l-1 2-4-27-6-21-11-28z" fill="#DEE2F3"/>
<path transform="translate(476,651)" d="m0 0 1 2-4 5v-2l-10 5-11 8-14 7 2-4 17-11 2-2-6 2-12 8-3-1 10-8 3-3-5-1v-2h19l9-2z" fill="#F0CC96"/>
<path transform="translate(704,296)" d="m0 0h5l1 10-26 2 1-10z" fill="#8EB0EA"/>
<path transform="translate(863,225)" d="m0 0h6l5 1 31 3 18 1 39 1v1l-15 1h-17l-38-1-26-2-4-2z" fill="#FDFEFE"/>
<path transform="translate(907,291)" d="m0 0h1l-1 8-6 36-2 21v43l3 37 2 19v13h-1l-4-41-2-22v-51l4-40 4-16z" fill="#302F6D"/>
<path transform="translate(517,112)" d="m0 0h3v11l-1 6v18l4 15 2 5 2 1-5-1-8-9-5-3v6h-1v-7h4l1-3 3 4v-4l-2-8 1-17z" fill="#E0E4F4"/>
<path transform="translate(742,292)" d="m0 0h1v22l-2 146h-1l-1-21h-2l-2 4v-3l4-7 2-132z" fill="#302F6D"/>
<path transform="translate(727,420)" d="m0 0h1l3 17 1 7 2-1-2 5-7 10-8 7-10 6-10 4h-5l-4-13-4-20-1-8v-10h1l4 28 5 20v2l14-6 10-6 7-7 3-6z" fill="#3A3D7E"/>
<path transform="translate(631,995)" d="m0 0 5 1 2 4v3l1-1v-7l4 4 2 3 4-1 5-5 5 1 3 10h-25z" fill="#F5F7FA"/>
<path transform="translate(329,619)" d="m0 0h3l-1 6-10 19-4 5-1-23z" fill="#B9C2D6"/>
<path transform="translate(701,306)" d="m0 0h9l4 20v4h2v9l10 67 1 14h-1l-11-72-6-37v-3l-13 1h-11v8l-1 6h-1v-15z" fill="#373A7D"/>
<path transform="translate(271,595)" d="m0 0 2 1-3 6h-2l-1 5v24l5 26 8 26 7 20 4 9-1 3-3-5-6-16-5-15-7-24-4-20-1-9v-18l6-12z" fill="#B0C0DF"/>
<path transform="translate(1438,306)" d="m0 0 8 6 9 13 10 19 10 24 8 22 8 29 1 10-2-4-7-27-9-26-12-29-8-15-8-12-4-5-2-1-2 9-2 3 1-7z" fill="#31316F"/>
<path transform="translate(995,564)" d="m0 0h1v24l-1 61-3-4v-53l1-16z" fill="#8FA7D1"/>
<path transform="translate(1029,529)" d="m0 0h8l42 7 6 2 2 13v5l-22-3-34-5-2-1zm1 1v15l5 2 46 7h5l-3-15-7-2-26-4-14-3z" fill="#34316D"/>
<path transform="translate(1155,333)" d="m0 0h11v1h-8v23h38l3 2-3 1h-41z" fill="#5B6DC3"/>
<path transform="translate(1065,308)" d="m0 0h1l1 13 6 20 7 16 18 32v2l13-5 20-9 3 1-15 7-18 8-5-2-10-19-9-16-10-25-2-8-1-12z" fill="#333371"/>
<path transform="translate(919,619)" d="m0 0h1l-1 7-1 6 6-9v3l-3 6-1 9h-2l-1-5-1 1-1 16-1 66-2-1 1-94 2 2z" fill="#302F6D"/>
<path transform="translate(974,336)" d="m0 0h1v23l3 8 9 12 1 3v29l-1 9h-1v-8l-23-1-16-1-2-2 25 1h15v-28l-10-14-2-5v-21z" fill="#343674"/>
<path transform="translate(368,134)" d="m0 0 3 1-1 2-28 5-27 9-14 7-2 2h-3v2l-5 1 1-3 10-6 12-6 14-6 16-3 12-2 7-2z" fill="#FDFEFE"/>
<path transform="translate(960,920)" d="m0 0h5v2l-22 10-27 10-13 5-4-1 11-5 34-14z" fill="#DADFF2"/>
<path transform="translate(557,860)" d="m0 0 8 4 7 8 8 12 8 14-4-2-6-11-1-3h-2l5 14v7h-1l-3-12-6-10-10-12 4-2-5-4-2-1z" fill="#A0A4C4"/>
<path transform="translate(985,420)" d="m0 0h1v9l-5 28-3 8-13 36-5 17-4 23-1 9h-1v-10l3-19 5-19 14-39 5-19z" fill="#31306E"/>
<path transform="translate(500,554)" d="m0 0 2 1-3 16-5 15-11 21-4 7-3-1 2-5 9-16 7-16 3-12-5 5-2-1 7-7z" fill="#DEE2F3"/>
<path transform="translate(582,541)" d="m0 0h9l18 5 2 1v2h-7l-16-4-9 1-11 4h-9v-4l-3-1h12z" fill="#D7DCF1"/>
<path transform="translate(626,993)" d="m0 0h8l4 4 2 6h-2l-2-7h-4l6 12h-34l-1-1v-9l1-2 5 2 5 5v2h3v2h16l-3-12-4-1z" fill="#B1BDD7"/>
<path transform="translate(693,252)" d="m0 0 5 1 5 9 2 7-5 8-2 2-5-1-4-5v-2l-3-1-1-3 5 2 4 5 2 1-3-8-6-7v-2l5 2 6 8 1 6 2-6-3-8-4-4-3-1v-2z" fill="#C1785A"/>
<path transform="translate(329,616)" d="m0 0 6 2 1-2 1 4-2 1-6 15-9 14-2 2-1 7h-1v-30h1l1 18 8-14 5-11 1-3-13 6-2-2z" fill="#DDE1F3"/>
<path transform="translate(636,449)" d="m0 0 5 2-1 5-3 4-1 2h-2v2l-6 4h-3v2h-5l1-6h2l1-3 3-2 2-1 3 1 2-2v-3l-8 1 2-4 1-1z" fill="#6E91C9"/>
<path transform="translate(1e3 316)" d="m0 0h2l-1 38-2-1-5-24v-6z" fill="#EDF1F8"/>
<path transform="translate(698,220)" d="m0 0h3l2 4 2 18-1 7-2-2h-7v-2l3-1-2-3 1-20z" fill="#F4D097"/>
<path transform="translate(847,1055)" d="m0 0h9l4 4v6l-5 5h-7l-1-1z" fill="#F6F7FB"/>
<path transform="translate(1131,666)" d="m0 0h5l1 23v20l-3-1-2-14z" fill="#FCFDFD"/>
<path transform="translate(505,151)" d="m0 0 5 2-2 1v14l-4 10-8 11-5 5-1 15h-1v-15l-2-1 7-8 7-11 3-8z" fill="#E2E6F5"/>
<path transform="translate(438,110)" d="m0 0h1l2 18 1 6v8l-3 14 2-1-1 10-1-3h-2l-1 3h-2l2-8-1-2 3-10v-12l-3-15 1-6z" fill="#E0E4F4"/>
<path transform="translate(340,901)" d="m0 0 3 1 5 7 2 5v6l-7 9-5 5 1 12 9 45 4 9 3 4-1 2-5-6-4-13-10-49 1-5 10-11 1-2v-7l-7-11z" fill="#312F6C"/>
<path transform="translate(301,89)" d="m0 0m-1 1m-1 1m-1 1m-1 1m-1 1m-1 1m-1 1m-1 1m-1 1m-1 1v3l-6 9-7 10-7 8-6 5 2-4 4-5 1-3-3-1 14-15z" fill="#8DAFEA"/>
<path transform="translate(521,414)" d="m0 0h2l1 12-1 15h11v1h-13l-1-6-13-1-7-4-6-7-1-4 3-1 6 9 7 4 11 1 1-9z" fill="#DDE1F3"/>
<path transform="translate(1534,902)" d="m0 0 7 1v7l-8 18-4 1 1-9z" fill="#F4F6FB"/>
<path transform="translate(912,572)" d="m0 0h1l1 47 1-24 3 1-1 9 8 1-6 10-2 8-2-3h-3z" fill="#C3CBE1"/>
<path transform="translate(1327,344)" d="m0 0 2 2 6 22v62l-1 13h-1v-36l-2-17 1-6v-19l-5-18z" fill="#3B3F85"/>
<path transform="translate(222,642)" d="m0 0h1l-1 15-1 10v14l5 2v2l9 3 8 4-3 1h-3l-5 10-1-3 5-10-9-3-7-3-7 1-5 2-3-1 9-5-9-5 3-1 5 2 4 2 2-14 2-19z" fill="#AEC1E6"/>
<path transform="translate(382,912)" d="m0 0 1 3-6 10-13 13h-2l3 45v8h10l4 4 2 7v6h-1l-3-11-1-4h-13l-2-38v-18l8-7 8-9z" fill="#353774"/>
<path transform="translate(1285,473)" d="m0 0h1v15l-2 15-2 25-1 27-1 5h-1v-21l2-34 3-31z" fill="#4F5BB1"/>
<path transform="translate(1066,1055)" d="m0 0h8l4 4v7l-5 4h-6l-1-1z" fill="#F7F9FC"/>
<path transform="translate(1048,264)" d="m0 0h1l1 10 14 4 2 5-1 5-7-1-1-1h-7l-2-11z" fill="#F9FBFD"/>
<path transform="translate(490,132)" d="m0 0 5 2 8 3 7 1 2 10v6l-6-1-6-11-5-5-5-3z" fill="#E5E8F6"/>
<path transform="translate(292,100)" d="m0 0 1 2-16 28-13 9-4 3-2-1 6-7 8-7 5-6 10-14z" fill="#7193CA"/>
<path transform="translate(916,635)" d="m0 0 2 1 1 16 1-6 4 1v9l-4 6-2 1-2 6h-1v-32z" fill="#E6E9F5"/>
<path transform="translate(93,628)" d="m0 0 5 2 5 3 9 4 20 7-4 1-20-7h-19l-19 3-19 5-7 3-3-1 12-5 19-5 24-3 4-1-7-4z" fill="#99B5E6"/>
<path transform="translate(736,617)" d="m0 0h1l1 52v47l-1 2h-2v-49z" fill="#8FA9D4"/>
<path transform="translate(661,839)" d="m0 0h5l-4 3h-3v2h7l-2 2-17 4-4-1 4-1v-3l-15 2-4 1v-3l17-2 1-3z" fill="#373772"/>
<path transform="translate(540,450)" d="m0 0h5l5 8 2 12-9-1-4-1-1-4 5-1 1-6-3-1z" fill="#6C8FC6"/>
<path transform="translate(522,442)" d="m0 0h16l9 4v2l4 2 1 6-5-3-4-4-3-1v-2l-13-1-1 7-1 2h-2l-1-5z" fill="#E4E7F5"/>
<path transform="translate(1e3 384)" d="m0 0h1l1 16 1 6v53l-2 1-1-39z" fill="#6C84BB"/>
<path transform="translate(1e3 323)" d="m0 0h1v32l2 12 3-2-2 6 2 1-3 2-1 10h-1l-3-23-3-12v-5l2 4 1 5 1-25z" fill="#424783"/>
<path transform="translate(516,106)" d="m0 0 2 1-2 19-1 17 3 14h-2l-4-6-2-6v-9l5-22z" fill="#96B3E7"/>
<path transform="translate(504,718)" d="m0 0 5 2-2 5v8l-2-4-11 1-3-3v-3l10-5z" fill="#333473"/>
<path transform="translate(1457,416)" d="m0 0 7 1 15 6 12 7 2-1 5 24 1 9-13-1-13-3v-1l11 1 13 2-5-25-5-5-16-8-14-5z" fill="#3A3D7C"/>
<path transform="translate(133,709)" d="m0 0 3 1-6 3h-2l-2 4-8 7-3 6v21l6 12 7 9 2 3-4-2-7-8-5-9-2-8v-15l2-6 6-9 7-6z" fill="#BAC5DF"/>
<path transform="translate(1369,988)" d="m0 0h1l1 13 1 4 2 1v-15h1v17h43v1h-72l-1-2h25l-2-14z" fill="#A7BEE9"/>
<path transform="translate(894,278)" d="m0 0 6 1 12 6 7 8 6 14 5 18 4 21v6l-2-3-6-29-7-21-6-10-3-1-2 3 1-6-9-3-6-3z" fill="#353776"/>
<path transform="translate(1129,214)" d="m0 0 6 5 3 7 5 4v2l4 2 5 2-3 1-9-2-5-2-5-8-2-10z" fill="#F1F5FA"/>
<path transform="translate(627,995)" d="m0 0h3l3 7v5h-16l1-5 4-6z" fill="#F9FBFC"/>
<path transform="translate(1046,1126)" d="m0 0h8l4 3v7l-5 3h-7z" fill="#EFF3F9"/>
<path transform="translate(454,358)" d="m0 0 3 1-3 4-2 7 4 13 2 6 2 4-8-6-3-8-1-14 2-6z" fill="#8CB0ED"/>
<path transform="translate(793,257)" d="m0 0h6v5l1 4-12 3h-6l1-5 8-6z" fill="#E5E8F6"/>
<path transform="translate(656,980)" d="m0 0h1v14h6l5 5v5l-2-1-3-6h-2l4 7v3h11v-12h1l1 11 2 1v-10h1l1 11h-39v-1h19l-4-10-3-2z" fill="#6783BB"/>
<path transform="translate(1117,631)" d="m0 0h2l1 4 5 1 1-5 2 4v15l-3-1-4-6h-1l1 7-2-2-3-5z" fill="#F5D197"/>
<path transform="translate(335,732)" d="m0 0 3 1-1 7-6 24-4 20h-2l2-16 5-27z" fill="#FDFEFE"/>
<path transform="translate(722,825)" d="m0 0h3v3l-13 1v2h-6v2h21v1l-24 3-4-1-2-1v-2l-5 1v-2l-3-1 9-2v2l16-4z" fill="#6C75A4"/>
<path transform="translate(1008,285)" d="m0 0h4l-2 6-1-4-6 1-1 5-3 3 2-5 1-2-17 8-9 7-4 5-4 4-8 18-1-4 6-14 9-10 8-7 16-8z" fill="#3B4181"/>
<path transform="translate(777,296)" d="m0 0 12 6 1 1v7l-2 3-4-1-6-3 1-3-1-1-1-2z" fill="#F7F9FC"/>
<path transform="translate(1435,901)" d="m0 0h5l11 13 4 6 1 4-8-1-2-5-7-10-4-5z" fill="#E5E8F6"/>
<path transform="translate(853,257)" d="m0 0 6 1 10 6 3 3v2h-7l-3-1-11-1 3-7z" fill="#F8F9FB"/>
<path transform="translate(1048,316)" d="m0 0h6l-2 2-8 2 1 6 4 9-2 4-11 9-10 9-16 14-2-1 7-7 8-7 10-9 11-9 3-1-6-16v-3z" fill="#3F4884"/>
<path transform="translate(533,237)" d="m0 0h4v9l-4 4-6 2h-6v-6l9-8 2 1-1 5 3-1z" fill="#779AD3"/>
<path transform="translate(180,786)" d="m0 0 3 3 1 4v9l-5 24v16l1 7h2l7 14-4-2-6-9-3-11v-11l5-24v-16z" fill="#BCC5DA"/>
<path transform="translate(187,179)" d="m0 0h3l9 11 7 9 8 10 3 4v2l-4-2-10-11-13-17z" fill="#DFE2F4"/>
<path transform="translate(527,445)" d="m0 0 13 1v1l-7 1-5 3 1 5 4 6v3l-9 2-2-12 3-1z" fill="#E2E5F4"/>
<path transform="translate(1012,1062)" d="m0 0 3 3 4 11v3h-13l3-9z" fill="#F6F8FB"/>
<path transform="translate(1051,285)" d="m0 0h6l10 4 3 2-3 1-6-2v21l-3 5-4-1 4-2 1-25h-7l-7 13-1-4z" fill="#5866A8"/>
<path transform="translate(1045,190)" d="m0 0h14v9h-13l-1-1z" fill="#EDF0F7"/>
<path transform="translate(207,302)" d="m0 0h1l5 34 3 13v5l-3-1-2-11-5-26-1-10z" fill="#E1E5F4"/>
<path transform="translate(800,335)" d="m0 0h2l8 17 1 5v9l-7 5h-5l-1-4 10-1-1-13-4-10v-2h-2l-2-5z" fill="#80A2DD"/>
<path transform="translate(448,677)" d="m0 0h3l1 9 4 1v3l-8 3-3 3h-2l1-7 2-9-3-2z" fill="#D4D9EF"/>
<path transform="translate(908,443)" d="m0 0h8l16 5-3 1-6-2-15-2 6 8 16 14 9 11-1 3-8-10-12-12-8-7-4-5v-3z" fill="#464E8E"/>
<path transform="translate(640,845)" d="m0 0h7v3l-4 1v2l-13 4h-2l-1-9 2 1z" fill="#C2C9DF"/>
<path transform="translate(857,339)" d="m0 0h11l8 7 1 2v9h-2l-3-9-4-4-2-1h-7l-5 4-2 2-2-4z" fill="#86A9E4"/>
<path transform="translate(791,210)" d="m0 0 3 4 7 14 13 9 10 5 7-1 14-8 2 1-9 6-8 4h-7l-16-8-9-8-6-12z" fill="#333371"/>
<path transform="translate(954,637)" d="m0 0 2 4 2 45 2 1 34 1v1h-38l-2-42z" fill="#444F9F"/>
<path transform="translate(441,124)" d="m0 0h2l3 11v8l-5 12-3 3 1-7 2-9v-8l-1-9z" fill="#B9C2D6"/>
<path transform="translate(1179,339)" d="m0 0h10v11h-10z" fill="#333471"/>
<path transform="translate(855,268)" d="m0 0h10l16 4 13 5-3 1-11-4-13-3 4 20v5l-10 7-2-1 10-7-3-18-1-7-10-1z" fill="#5A4E7B"/>
<path transform="translate(231,975)" d="m0 0 8 1v3l8 7 12 12-3 1h-10v-1h7l-7-8-9-9-6-5z" fill="#DCE0F2"/>
<path transform="translate(1420,966)" d="m0 0 4 1 4 9v2l-10 2-2-9z" fill="#E3E6F5"/>
<path transform="translate(1468,940)" d="m0 0 3 4 9 22 1 7h-2v-2h-2l-7-18-2-4z" fill="#E5E8F6"/>
<path transform="translate(204,577)" d="m0 0 7 1 7 5 4 5 4 10v28l-2 15h-1l1-17v-21l-4-13-7-8-9-4z" fill="#A2B9E4"/>
<path transform="translate(984,412)" d="m0 0h2v8l-4 24-2 9h-1v-10l4-30z" fill="#CDD7EC"/>
<path transform="translate(238,480)" d="m0 0h2v23l-1 22-2 1v-38z" fill="#E9EBF7"/>
<path transform="translate(460,171)" d="m0 0 3 1-3 14-1 15-2-1-2-5v-10l3-10z" fill="#E5E8F6"/>
<path transform="translate(222,759)" d="m0 0 2 2 5 12 8 7 2 1 1-5 5-5 6-5 5-1-10 8-4 6 1 3 11 4-3 1-15-5-9-8-4-8z" fill="#A5B9DF"/>
<path transform="translate(1319,288)" d="m0 0 4 1 5 7 5 1v2l-7 5h-3l-4-10z" fill="#EBEFF7"/>
<path transform="translate(322,504)" d="m0 0h2l1 6v33l-2 6h-1z" fill="#E1E4F4"/>
<path transform="translate(499,786)" d="m0 0h7l1 2v6l-2 2-9 1v-9z" fill="#EDF0F6"/>
<path transform="translate(860,347)" d="m0 0h5l4 4-2 5-2 2h-6l-2-2 1-7z" fill="#8CB0ED"/>
<path transform="translate(1340,219)" d="m0 0h5l-2 7h5l1-5-1-2h5l-1 9-1 2h-11l-1-1v-9z" fill="#BE7355"/>
<path transform="translate(1371,849)" d="m0 0h4v26l-2-2-3-10v-13z" fill="#FBFCFD"/>
<path transform="translate(1128,635)" d="m0 0h1v28l-3-1-2-6-4-9-1-5 4 2 3 5 2 1z" fill="#F0F2F9"/>
<path transform="translate(1247,195)" d="m0 0 2 1-4 15-7 8-9 6-12 5-9 2h-7v-1l17-4 12-5 10-9 5-10z" fill="#302F6D"/>
<path transform="translate(608,560)" d="m0 0 4 5 2 4-1 5-1 1h-6l-2-2 1-9z" fill="#6B8EC5"/>
<path transform="translate(573,824)" d="m0 0 8 1 3 3 1 4v10l-1 10-3 7-1-4 2-9v-14l-3-5h-6l-5 5 1-5z" fill="#4F5C9B"/>
<path transform="translate(857,303)" d="m0 0 2 1 1 6 2 3v5l-18 13-16 12-2-1 1-2 4-2 13-10 14-10h2l-3-10z" fill="#3E4583"/>
<path transform="translate(256,874)" d="m0 0 3 4 11 23 2 5 3-11h1v9l-2 11-2-2-5-13-11-23z" fill="#97B4E6"/>
<path transform="translate(288,820)" d="m0 0 2 1v15l-1 2h-2l-5-10v-3z" fill="#FDFEFE"/>
<path transform="translate(1331,299)" d="m0 0 2 1-13 11 1 9 6 20-1 4-8-27-1-1-4 8-1-4 7-11 9-8z" fill="#383B7D"/>
<path transform="translate(995,564)" d="m0 0h1v24l-2 17-2 1v-14l1-16z" fill="#6D82B6"/>
<path transform="translate(625,453)" d="m0 0 1 2 4-2 5 1-1 4-3 2h-3l-4 2-1 2h-2l-1 5h-1l1-7 4-8z" fill="#8EB1EC"/>
<path transform="translate(736,290)" d="m0 0 2 1-8 13-9 17-4 11-1-2h-2v-3l2-1 2-5 7-14 9-14z" fill="#4956AD"/>
<path transform="translate(583,542)" d="m0 0h12l14 4 2 1v2h-7l-22-5z" fill="#E0E4F4"/>
<path transform="translate(419,238)" d="m0 0h2l1 6 7-1 5 4v3l-7 1-4-1v-2h-2l-2-3z" fill="#7093CB"/>
<path transform="translate(565,998)" d="m0 0 5 1 9 6v2h-12l-3-3v-5z" fill="#DFBE99"/>
<path transform="translate(1323,983)" d="m0 0 7 3 5 6 2 1v2l5 2v2l-9-2-10-10z" fill="#EDF1F8"/>
<path transform="translate(1374,981)" d="m0 0h1l-1 25-3-1-1-4v-13z" fill="#F7F8FC"/>
<path transform="translate(771,356)" d="m0 0 2 2 4 12 1 4 7-3 5 1-1 4h-11l-4-4-3-9z" fill="#6982D0"/>
<path transform="translate(691,256)" d="m0 0h5l5 8 1 6-3 5h-1l-2-9-5-6z" fill="#E7DCD3"/>
<path transform="translate(666,995)" d="m0 0h9v11h-8v-7z" fill="#FAFBFD"/>
<path transform="translate(919,619)" d="m0 0h1l-1 7-1 6 6-9v3l-3 6-1 9h-2l-1-5-2 1 1-7h-2l-1 3v-9l2 2z" fill="#C17E5F"/>
<path transform="translate(608,995)" d="m0 0h11l3 1-2 5-3 4h-3l-6-7z" fill="#F48388"/>
<path transform="translate(1385,428)" d="m0 0 24 8 12 5 15 5-4 1-19-6-12-5-8-3-8-4z" fill="#4A4885"/>
<path transform="translate(500,554)" d="m0 0 2 1-3 16-3 10-3-1 3-11 1-5-5 5-2-1 7-7z" fill="#DCE0F3"/>
<path transform="translate(565 1e3)" d="m0 0 2 1h14l3 2-6 1h-36l2-2h21z" fill="#C1CDEA"/>
<path transform="translate(340,901)" d="m0 0 3 1 5 7 2 5v6l-7 9-5 5v8h-2l-1-8 7-7 5-7v-7l-7-11z" fill="#393D7C"/>
<path transform="translate(557,860)" d="m0 0 8 4 7 8 8 12 8 14-4-2-6-11-8-11-9-10-4-2z" fill="#323270"/>
<path transform="translate(1412,963)" d="m0 0 2 2 4 12v3l2 1 1 8 5 19h-6l1-2h2l-10-37z" fill="#90B1EA"/>
<path transform="translate(974,235)" d="m0 0 3 1 6 10 6 6v2l-4 1-7-8-4-11z" fill="#E7ECF7"/>
<path transform="translate(1114,642)" d="m0 0 4 5 6 11 1 3-1 2-3-1-7-12z" fill="#ECC590"/>
<path transform="translate(1008,185)" d="m0 0h5l2 4v10h-13v-1h12l-1-7h-9l-2-3z" fill="#D4DBEE"/>
<path transform="translate(914,585)" d="m0 0 1 2v3l2 1v8h-1l-1 20-2 1v-34z" fill="#302F6D"/>
<path transform="translate(679,410)" d="m0 0h1v6l-7 9-6 5-4 1v-3l6-4 6-8z" fill="#D7DCF1"/>
<path transform="translate(439,135)" d="m0 0h1l1 13-2 8 2-1-1 10-1-3h-2l-1 3h-2l2-8-1-2 3-10z" fill="#DBE0F2"/>
<path transform="translate(93,628)" d="m0 0 5 2 5 3 9 4 20 7-4 1-20-7-11-1 3-3-7-4z" fill="#9DB8E9"/>
<path transform="translate(907,291)" d="m0 0h1l-1 8-6 36-2-4 3-22z" fill="#5563AE"/>
<path transform="translate(769,273)" d="m0 0 2 1-12 5-15 7-2 15h-1l-1-12h-3l7-6 19-8z" fill="#414885"/>
<path transform="translate(1109,638)" d="m0 0 3 1 4 13 6 10-4-1-7-10-2-9z" fill="#9E655A"/>
<path transform="translate(532,443)" d="m0 0h9l6 3v2l4 2 1 6-5-3-4-4-3-1v-2l-6-1z" fill="#F4F6FB"/>
<path transform="translate(452,405)" d="m0 0 3 1 2 4-9 4h-5l-1-4z" fill="#D6DBF1"/>
<path transform="translate(780,271)" d="m0 0h2l-1 10-3 14-2-2v-9l3-12z" fill="#F5F4F4"/>
<path transform="translate(973,231)" d="m0 0 3 3-1 2 4 11 6 7v2l-5-1-6-11-2-6z" fill="#7493D8"/>
<path transform="translate(177,780)" d="m0 0 3 3-1 2-32-1-2-2h32z" fill="#CCD3E9"/>
<path transform="translate(501,696)" d="m0 0h3l3 5v4l-10 2 1-6z" fill="#F7F8FC"/>
<path transform="translate(916,601)" d="m0 0 1 4 8 1-3 5-5 7h-1z" fill="#EFF2F9"/>
<path transform="translate(714,314)" d="m0 0h7l-2 7-3 6-3-1v-11z" fill="#F1F4F9"/>
<path transform="translate(514,129)" d="m0 0h1v14l3 14h-2l-4-6-2-6 1-4 2-7z" fill="#BAC3D7"/>
<path transform="translate(1397,978)" d="m0 0 2 4 8 6 9 8-1 2-6-5-7-2-4-5z" fill="#B9C1D5"/>
<path transform="translate(419,236)" d="m0 0 6 2 9 7 1 1v5l-6 1 3-2h2l-3-5-4-1-5 1-1-1v-6h-2z" fill="#AFC6F0"/>
<path transform="translate(650,843)" d="m0 0h7l5 1 4 1-15 4-8 1 4-2-1-4z" fill="#895666"/>
<path transform="translate(1438,306)" d="m0 0 8 6 9 13 3 6-2 1-9-15-5-6-2-1-2 9-2 3 1-7z" fill="#3C407C"/>
<path transform="translate(565,564)" d="m0 0h2l1 2v7l-4 2-5-1-1-4h4v-3z" fill="#6B8EC5"/>
<path transform="translate(265 1e3)" d="m0 0 4 3v3l25-1 2 2h-38v-1l5-1-1-4 2 1z" fill="#D7DCF0"/>
<path transform="translate(221,725)" d="m0 0 1 3-5 12-1 6-4-4-6-7-5-5 5 2 5 4 3 3 2-3z" fill="#B2C4E7"/>
<path transform="translate(948,608)" d="m0 0h1v7l-1 9v28h-1l-2-31z" fill="#D6DBF1"/>
<path transform="translate(1e3 477)" d="m0 0h1v15l-3 28-1 6h-1v-14l2-11z" fill="#3C3F7D"/>
<path transform="translate(1035,226)" d="m0 0h5l1 4-6 4h-5l-1-5z" fill="#F97386"/>
<path transform="translate(788,182)" d="m0 0 6 1-2 1v8l-8-3-1-5z" fill="#DAA97E"/>
<path transform="translate(1107,639)" d="m0 0 3 3 3 11 2 4-2 3-5-7-1-3z" fill="#EBC38F"/>
<path transform="translate(284,819)" d="m0 0h3l-1 4-4 2 5 11-1 4v-2h-2l-6-14 1-3 3 3z" fill="#C8D3F0"/>
<path transform="translate(179,576)" d="m0 0h7l-3 2-12 3-5 4-4 8v11l-2-4v-10l4-6 6-5z" fill="#93B4EC"/>
<path transform="translate(1008,285)" d="m0 0h4l-2 6-1-4-6 1-1 5-3 3 2-5 1-2-16 7-1-2 15-7z" fill="#3E4583"/>
<path transform="translate(787,261)" d="m0 0 4 3 8 1-1 2-10 2h-6l1-5z" fill="#F7F7F9"/>
<path transform="translate(561,995)" d="m0 0 7 2-3 2v8h-7l2-5-2-1v-3z" fill="#E3E6F5"/>
<path transform="translate(1243,796)" d="m0 0 4 1-10 5-11 4h-6l2-2z" fill="#D9DEF2"/>
<path transform="translate(1048,316)" d="m0 0h6l-2 2-8 2 1 6 4 9-2 4-4 3-2-1 4-4h2l-6-16v-3z" fill="#4A4D84"/>
<path transform="translate(1028,189)" d="m0 0 6 1v7l-7 1-1-7z" fill="#393D80"/>
<path transform="translate(932,644)" d="m0 0h2l-1 10-4 8-6 6h-3v-2l6-5 4-8z" fill="#B97058"/>
<path transform="translate(792,320)" d="m0 0 5 2 17 13 7 5v2l-4-2-18-13-7-6z" fill="#604D70"/>
<path transform="translate(421,196)" d="m0 0 3 1-2 10-3 14-3-2 4-19z" fill="#DFE3F4"/>
<path transform="translate(498,138)" d="m0 0 4 2 2 4 3 1 5 6v3l-6-1-6-11z" fill="#FDFEFE"/>
<path transform="translate(301,123)" d="m0 0h10l1 6 4 5v2l-5-1-3-5-2-4-5-2z" fill="#3C4183"/>
<path transform="translate(626,993)" d="m0 0h8l4 4 2 6h-2l-2-7h-4l6 12h-5l-2-9-1-4-4-1z" fill="#737CA8"/>
<path transform="translate(364,983)" d="m0 0h1v8h10l4 4 2 7v6h-1l-3-11-1-4h-13v-7z" fill="#586399"/>
<path transform="translate(133,709)" d="m0 0 3 1-6 3h-2l-2 4-8 7-4 8-1-4 8-11 8-6z" fill="#B0C6EC"/>
<path transform="translate(1467,409)" d="m0 0h13l2 4-3 5h-2l1-6h-23l3-2z" fill="#7278A4"/>
<path transform="translate(1117,290)" d="m0 0 14 3h19l-3 2-5 1h-10l-13-3-2-1z" fill="#5F7AC5"/>
<path transform="translate(318,121)" d="m0 0 4 1-3 2 2 5 3 6-5-1-6-10-1-2z" fill="#3F427C"/>
<path transform="translate(656,980)" d="m0 0h1v14h6l5 5v5l-2-1-3-6h-2v5l-2-3-1-2-3-2z" fill="#8CA1CE"/>
<path transform="translate(1480,975)" d="m0 0 3 2 4 18 1 11-2-1-5-24z" fill="#FDFEFE"/>
<path transform="translate(713,823)" d="m0 0 2 1-1 4-10 3h-6l1-3z" fill="#C1CDE8"/>
<path transform="translate(1100,277)" d="m0 0 7 1 4 3v3 2l6 2 2 2-3 1-8-6-8-7z" fill="#7FA1DF"/>
<path transform="translate(696,246)" d="m0 0h6l4 6 2 6v8l-1 2-2-1v-9l-5-9-4-2z" fill="#B16F58"/>
<path transform="translate(821,220)" d="m0 0 8 1 3 1v4h-11l-1-4z" fill="#E5E8F6"/>
<path transform="translate(630,840)" d="m0 0h14v3l-2 1h-13v-3z" fill="#DEE8F7"/>
<path transform="translate(853,257)" d="m0 0 6 1 4 3-6 5-6 1 3-7z" fill="#E5E8F6"/>
<path transform="translate(675,994)" d="m0 0h3l-2 13h-11l-5-10 3-1 4 7v3h8z" fill="#D0D7E9"/>
<path transform="translate(468,719)" d="m0 0h5l2 2-1 5-1 1h-5l-1-1v-6z" fill="#323270"/>
<path transform="translate(645,402)" d="m0 0 2 4 2 2v3l1 9-3 1-4-14 1-3z" fill="#DEE1F3"/>
<path transform="translate(1296,385)" d="m0 0 2 1-1 12-2 14-2 4v-11l2-12z" fill="#3D4394"/>
<path transform="translate(960,920)" d="m0 0h5v2l-15 7h-2l1-4z" fill="#DCE0F3"/>
<path transform="translate(1278,561)" d="m0 0h1v20l-2 10h-1v-13l1-16z" fill="#5062AB"/>
<path transform="translate(505,382)" d="m0 0 1 2-7 8-6 6-4-1-2-5 1-8h1l1 10 3 1 8-8z" fill="#94B3E9"/>
<path transform="translate(1069,291)" d="m0 0 6 2 12 6-3 1h-9l-7 6-2 2 1-4 5-5 4-2-7-5z" fill="#3B4084"/>
<path transform="translate(1109,281)" d="m0 0 5 1 9 5-1 3-5-1-6-3z" fill="#D0D9F1"/>
<path transform="translate(727,420)" d="m0 0h1l3 17v7l-3 3-1-16z" fill="#697EB6"/>
<path transform="translate(300,429)" d="m0 0h4l5 12v2h-2l-1 2z" fill="#D7DCF1"/>
<path transform="translate(163,943)" d="m0 0h21l9 3 1-2 3 4-11-1-8-2-15-1z" fill="#DBDFF1"/>
<path transform="translate(504,738)" d="m0 0 2 1-5 5-7 2h-7l-3-3 12-1 7-3z" fill="#768BC5"/>
<path transform="translate(1457,416)" d="m0 0 7 1 15 6 7 4v2l-5-2-10-5-14-5z" fill="#5360A8"/>
<path transform="translate(648,420)" d="m0 0 3 1 2 7 10 1v2l-13 1-2-8z" fill="#E5E8F6"/>
<path transform="translate(530,389)" d="m0 0 3 1-4 10-2 10-5-4 2-1 4-12z" fill="#DEE2F3"/>
<path transform="translate(687,258)" d="m0 0 5 2 6 8v6l-2 1-3-8-6-7z" fill="#BD7455"/>
<path transform="translate(1048,247)" d="m0 0v3l-10 9-12 6-7 1 2-2 11-4 9-7z" fill="#333471"/>
<path transform="translate(1293,417)" d="m0 0 1 2-1 13-3 14h-1v-11l3-17z" fill="#4C57A3"/>
<path transform="translate(1111,831)" d="m0 0 4 1-7 3-12 4h-5v-2l10-3 7-2z" fill="#DBDFF2"/>
<path transform="translate(640,445)" d="m0 0h6l1 1v7l-2 1-5-5-6-2v-1z" fill="#CDD3E9"/>
<path transform="translate(987,392)" d="m0 0h1v19l-1 9h-1v-8h-2l1-4 1-15z" fill="#323270"/>
<path transform="translate(187,179)" d="m0 0h3l9 11v3h-3l-9-13z" fill="#DADEF1"/>
<path transform="translate(669,921)" d="m0 0 2 1-4 5-2 1-6 18-2 4 1-9 5-14 5-5z" fill="#826372"/>
<path transform="translate(564,899)" d="m0 0 4 3-1 6-7 3 3-10z" fill="#DCE1F2"/>
<path transform="translate(546,452)" d="m0 0 5 5 4 11v2l-2 1h-8l-4-2 2-1 9 2-3-12-3-4z" fill="#96B4E8"/>
<path transform="translate(1333,383)" d="m0 0 2 1-1 23h-1l-2-17z" fill="#596CBE"/>
<path transform="translate(211,330)" d="m0 0h1l4 19v5l-3-1-2-11-1-8z" fill="#E0E3F4"/>
<path transform="translate(1400,925)" d="m0 0h1v9l4-1-2 3 5 14-1 3-4-8-3-8z" fill="#A7BADD"/>
<path transform="translate(772,343)" d="m0 0h1v15h-3l-1-14z" fill="#A1B9E7"/>
<path transform="translate(343,65)" d="m0 0 9 1-5 4-4 9-1-3v-10z" fill="#3C4185"/>
<path transform="translate(594,910)" d="m0 0h7l1 1v5h-8z" fill="#383B79"/>
<path transform="translate(325,785)" d="m0 0 2 2 2 6-2 3-4-1-2-1 1-5h2z" fill="#F9FAFC"/>
<path transform="translate(1084,368)" d="m0 0 3 1 11 20v2l3 1-2 1-4-3-8-16z" fill="#3A3F83"/>
<path transform="translate(1160,345)" d="m0 0h16l-1 3h-15z" fill="#3A3F7C"/>
<path transform="translate(629,787)" d="m0 0 7 1 14 14 3 2v2l-4-2-13-13-3-2h-4z" fill="#D1C0B1"/>
<path transform="translate(495,419)" d="m0 0 8 10 2 2-2 2-7-6-3-5 1-2z" fill="#DBDFF2"/>
<path transform="translate(590,995)" d="m0 0 13 1 1 2v10h-2l-1-6-2-1v-3l-8-1z" fill="#5E71AC"/>
<path transform="translate(579,971)" d="m0 0h1l1 13 6 8 3 3-5-2-7-9-1-5z" fill="#414A87"/>
<path transform="translate(451,677)" d="m0 0h9l4 8v3l-4-2-4-6v-2h-5z" fill="#B5C0D8"/>
<path transform="translate(195,664)" d="m0 0h2l4 7v2l4 2-5-1-13-6 4-1 5 2z" fill="#ACC2ED"/>
<path transform="translate(740,433)" d="m0 0h1v27h-1l-1-21h-2l-2 4v-3l3-6z" fill="#393D7A"/>
<path transform="translate(499,358)" d="m0 0 5 1 3 2 1 5v9l-1 5h-1l-1-15-4-5z" fill="#8EB0EC"/>
<path transform="translate(1160,339)" d="m0 0h15v3h-14z" fill="#302F6D"/>
<path transform="translate(1416,998)" d="m0 0 4 3 2-2 1 7-3 1v-2h-2l-1 2-3-5-1-2h2z" fill="#CCD4EC"/>
<path transform="translate(1475,959)" d="m0 0h2l4 9v5h-2v-2h-2l-3-9z" fill="#ECEEF8"/>
<path transform="translate(1234,665)" d="m0 0h3l1 5v15h-1l-2-12-1-1z" fill="#FBFDFD"/>
<path transform="translate(1213,665)" d="m0 0h5l-1 8h-2l-1 8h-1z" fill="#FDFEFE"/>
<path transform="translate(30,654)" d="m0 0 2 1-4 2-2 4-8 8h-2l2-4 4-5z" fill="#BCCDEB"/>
<path transform="translate(1324,461)" d="m0 0 2 1v5h-2l-2 7-3 3 1-10z" fill="#E1BC92"/>
<path transform="translate(948,380)" d="m0 0h1l-1 23-2 4h-1l1-14z" fill="#6077AE"/>
<path transform="translate(1443,449)" d="m0 0 7 1 13 3 5 2v1l-11-1-5-2-8-2z" fill="#4A5598"/>
<path transform="translate(253,765)" d="m0 0 3 1-9 6-5 7v3h-2l-1-4 3-5 9-7z" fill="#CCD2E7"/>
<path transform="translate(1159,339)" d="m0 0 2 2h15v4h-16z" fill="#D8DEF1"/>
<path transform="translate(304,122)" d="m0 0h8l4 5 1 3-4 1-3-4v-3l-6-1z" fill="#D9E1F1"/>
<path transform="translate(1417,885)" d="m0 0 5 2 7 6 5 8-1 3-6-9-5-5-5-3z" fill="#B9C2D6"/>
<path transform="translate(722,825)" d="m0 0h3v3l-13 1v2h-8l4-2z" fill="#525EA2"/>
<path transform="translate(613,991)" d="m0 0 5 1 7 1v1l-10 2h-6z" fill="#F6F7F9"/>
<path transform="translate(937,648)" d="m0 0h2l-1 10-4 6-3 2 1-4 3-5z" fill="#A46759"/>
<path transform="translate(260,594)" d="m0 0 6 8-1 4-3-1-4-8 1-2z" fill="#E4E7F5"/>
<path transform="translate(386,454)" d="m0 0 2 3v19h-1l-1-9h-1v-9z" fill="#D9DEF2"/>
<path transform="translate(1301,360)" d="m0 0h1v9l-3 15h-2l2-17z" fill="#4A56A9"/>
<path transform="translate(1048,264)" d="m0 0h1l1 10 3 5-1 4 2 2-4 1-2-11z" fill="#CFD9F0"/>
<path transform="translate(261,791)" d="m0 0 4 2 8 13 1 6-4-5-5-10-4-4z" fill="#A6BDE9"/>
<path transform="translate(618,545)" d="m0 0 5 4-14 1 2-1v-2l-2-1z" fill="#D0D5EB"/>
<path transform="translate(527,445)" d="m0 0 13 1v1l-7 1-5 3-2 3z" fill="#D6DBF0"/>
<path transform="translate(1105,315)" d="m0 0 5 5 8 11 1 4-5-5-7-10z" fill="#3B4085"/>
<path transform="translate(721,315)" d="m0 0 2 2-6 15-1-2h-2v-3l2-1 2-5z" fill="#6E7DB6"/>
<path transform="translate(524,243)" d="m0 0 2 1-2 3 5-1-1 3-2 1 1 2h-6v-6z" fill="#90B1EB"/>
<path transform="translate(1213,175)" d="m0 0 4 2v5l-4 2-2-5z" fill="#302F6D"/>
<path transform="translate(631,995)" d="m0 0 5 1 2 4v3l2 1-3 3z" fill="#DDE5F5"/>
<path transform="translate(1404,991)" d="m0 0 5 1 6 5-4 2-7-6z" fill="#CCD4EB"/>
<path transform="translate(1370,846)" d="m0 0h5v3l-4 1-1 8h-2v-11z" fill="#CED5EB"/>
<path transform="translate(695,829)" d="m0 0h3v2h6l-4 2h-2l-1 2v-2l-5 1v-2l-3-1z" fill="#694A63"/>
<path transform="translate(573,824)" d="m0 0 8 1 2 2-1 3-3-3h-6l-5 5 1-5z" fill="#49569C"/>
<path transform="translate(329,616)" d="m0 0 4 2h-4v2l-10 5-2-2z" fill="#DFE3F4"/>
<path transform="translate(509,359)" d="m0 0 4 5 1 6-4-2-2-2v-6z" fill="#FDFEFE"/>
<path transform="translate(1186,208)" d="m0 0 18 1v2h-17z" fill="#7C5460"/>
<path transform="translate(1070,535)" d="m0 0 9 1 6 2 1 8h-2l-2-7-12-2z" fill="#493D6B"/>
<path transform="translate(984,412)" d="m0 0h2v8l-2 5h-2v-7z" fill="#DDE3F2"/>
<path transform="translate(869,341)" d="m0 0 4 2 4 5v9h-2l-2-11z" fill="#7C9CD1"/>
<path transform="translate(1372,221)" d="m0 0 5 1 1 4-4 2-3-3z" fill="#302F6D"/>
<path transform="translate(379 1e3)" d="m0 0h1v5h-24l-1-4 4 2 20 1z" fill="#7796D3"/>
<path transform="translate(230,972)" d="m0 0 11 3 9 3v1l-9-1-10-3z" fill="#A3BBE9"/>
<path transform="translate(179,849)" d="m0 0h3l7 14-4-2-6-9z" fill="#CCD3E8"/>
<path transform="translate(385,515)" d="m0 0h1l-1 12-1 5-3-1 1-9z" fill="#DDE1F3"/>
<path transform="translate(1332,398)" d="m0 0h1v15l-3 2 1-14z" fill="#ADB9D3"/>
<path transform="translate(508,366)" d="m0 0 4 4h-2v8l-3 4z" fill="#EBEDF8"/>
<path transform="translate(800,335)" d="m0 0h2l5 10v4h-2l-2-8h-2l-2-5z" fill="#6C86D1"/>
<path transform="translate(460,677)" d="m0 0h2v2l3 1 3 4v3l-5-2-3-6z" fill="#7CA0DA"/>
<path transform="translate(955,665)" d="m0 0h1l2 21 2 1v2h-4z" fill="#34316C"/>
<path transform="translate(802,366)" d="m0 0 5 1-1 3-7 1-1-4z" fill="#383B84"/>
<path transform="translate(857,303)" d="m0 0 2 1 1 6 2 3v5l-4 3-2-1 4-2-3-10z" fill="#434A86"/>
<path transform="translate(1183,176)" d="m0 0 4 1 1 3-1 3-5-1v-5z" fill="#302F6D"/>
<path transform="translate(512,151)" d="m0 0 4 4v2h2l-1 3-8-5v6h-1v-7h4z" fill="#DCE0F3"/>
<path transform="translate(448,979)" d="m0 0 5 4v3l-7 1 2-1-2-6z" fill="#6684C8"/>
<path transform="translate(250,580)" d="m0 0 5 5 5 9-1 2-7-10z" fill="#FDFEFE"/>
<path transform="translate(1156,425)" d="m0 0 2 4-1 8-4 7-1-2 3-9z" fill="#B9C2D6"/>
<path transform="translate(1023,356)" d="m0 0 2 1-9 9-6 5-2-1 7-7z" fill="#3C437F"/>
<path transform="translate(685,267)" d="m0 0 5 2 4 5v2l3 1-2 1-4-2-2-5-3-1z" fill="#96615B"/>
<path transform="translate(440,155)" d="m0 0h1l-1 10-1-3h-2l-1 3h-2l2-6 3-1z" fill="#D4D9EF"/>
<path transform="translate(502,706)" d="m0 0h5l-1 6-4-1-2-4z" fill="#323278"/>
<path transform="translate(318,478)" d="m0 0 3 1 1 10-3 1z" fill="#DFE3F4"/>
<path transform="translate(1295,467)" d="m0 0 1 4 9-2 5-1-1 2-10 3h-5z" fill="#4D559D"/>
<path transform="translate(630,453)" d="m0 0 5 1-1 4-3 2-2-1v-5z" fill="#F1F4F9"/>
<path transform="translate(1437,411)" d="m0 0 11 1 9 3v1l-8-1-12-3z" fill="#313072"/>
<path transform="translate(1050,286)" d="m0 0h2l-2 6-5 9-1-4z" fill="#38336B"/>
<path transform="translate(438,110)" d="m0 0h1v10h-1l-1 5h-1l-1-10z" fill="#D6DBF1"/>
<path transform="translate(1105,647)" d="m0 0 3 3 5 9 1 2h-3l-6-10z" fill="#31326F"/>
<path transform="translate(1281,505)" d="m0 0h1l1 13-2 8h-1z" fill="#5D77C5"/>
<path transform="translate(978,247)" d="m0 0 5 5 2 4-5-1-3-6z" fill="#8CB0EE"/>
<path transform="translate(1363,224)" d="m0 0 4 5 2 1 10 1v1h-13l-3-2z" fill="#302F6D"/>
<path transform="translate(993,206)" d="m0 0h8l6 4-1 3-5-4-9-1z" fill="#8F5D5C"/>
<path transform="translate(842,186)" d="m0 0 4 2-1 5-5-1z" fill="#302F6D"/>
<path transform="translate(216,963)" d="m0 0 9 5 5 3v2l-5-2-9-6z" fill="#8FB1EC"/>
<path transform="translate(281,828)" d="m0 0h2l4 8-1 4v-2h-2l-3-6z" fill="#C4D1EF"/>
<path transform="translate(275,737)" d="m0 0 4 5 2 4v5l-2 1-2-6z" fill="#505DBF"/>
<path transform="translate(1043,297)" d="m0 0 2 4-5 10-2-1 4-11z" fill="#CF7363"/>
<path transform="translate(1041,228)" d="m0 0h1v5l-2 2h-10v-1l6-2 4-2z" fill="#E0BC95"/>
<path transform="translate(1018,202)" d="m0 0 7 4h14l1 2-3 1-13-1-5-3z" fill="#302F6D"/>
<path transform="translate(1212,166)" d="m0 0h6l3 3h-13l1-2z" fill="#BD7455"/>
<path transform="translate(275,895)" d="m0 0h1v9l-2 7h-1v-8z" fill="#CED4E7"/>
<path transform="translate(339,902)" d="m0 0h2l1 5-1 1h-6l2-4z" fill="#F6F9FC"/>
<path transform="translate(1006,883)" d="m0 0 2 1-3 5-4 2v-5z" fill="#FDFEFE"/>
<path transform="translate(1232,800)" d="m0 0m-2 1 4 2-8 3h-6l2-2z" fill="#DBDFF2"/>
<path transform="translate(464,703)" d="m0 0 4 1-1 5-4 1v-6z" fill="#F1F3F9"/>
<path transform="translate(335,616)" d="m0 0 2 1-1 3-3 6-2-1 1-6-3-1h6z" fill="#DADFF2"/>
<path transform="translate(486,620)" d="m0 0h9v2l-3 2h-7l2-2z" fill="#718DBF"/>
<path transform="translate(1299,600)" d="m0 0 3 1-1 17h-1l-1-9-1-2z" fill="#789CD5"/>
<path transform="translate(808,187)" d="m0 0 5 1v5l-5-1-1-2z" fill="#302F6D"/>
<path transform="translate(442,144)" d="m0 0h1v7l-4 7-1-4z" fill="#A4B9E0"/>
<path transform="translate(675,771)" d="m0 0h6l2 4-7-1-2 5h-1v-7z" fill="#E6C59A"/>
<path transform="translate(534,454)" d="m0 0h4l-1 5h-4l-1-4z" fill="#F6F8FB"/>
<path transform="translate(785,371)" d="m0 0 5 1v3h-9z" fill="#333476"/>
<path transform="translate(1357,248)" d="m0 0h11v2l-2 1-9-1z" fill="#302F6D"/>
<path transform="translate(532,237)" d="m0 0 3 2-1 5h-4l1-5z" fill="#E7EAF5"/>
<path transform="translate(1247,195)" d="m0 0 2 1-4 15h-3z" fill="#5D4769"/>
<path transform="translate(560,868)" d="m0 0 4 2 8 10-1 2-11-13z" fill="#413E75"/>
<path transform="translate(495,692)" d="m0 0 5 1v3l-6 1z" fill="#F6F7FB"/>
<path transform="translate(205,675)" d="m0 0 7 1 5 3 1-2v3h-2l-1 2-10-6z" fill="#B9CBEF"/>
<path transform="translate(437,653)" d="m0 0 2 1-2 4-8 7v-3z" fill="#91B1E8"/>
<path transform="translate(546,549)" d="m0 0 3 1-2 11-3-3 1-7z" fill="#DDE1F3"/>
<path transform="translate(944,406)" d="m0 0 4 1-1 3h-3v12h-1l-1-14h2z" fill="#97AED7"/>
<path transform="translate(109,358)" d="m0 0 2 4 4 2v2h2l1 4-7-6-3-3z" fill="#D1D9F2"/>
<path transform="translate(1456,928)" d="m0 0h5l2 2v4l-5-2z" fill="#E3E6F5"/>
<path transform="translate(575,854)" d="m0 0 4 1-3 1v5l-4 3 1-6z" fill="#E5C195"/>
<path transform="translate(662,841)" d="m0 0h5v5l-9-1 1-3z" fill="#A3A7C6"/>
<path transform="translate(507,787)" d="m0 0 2 2-1 7-1 1h-9v-1l7-1 1-1z" fill="#52588C"/>
<path transform="translate(247,695)" d="m0 0h4v2l6 2 5 3-2 1-13-6z" fill="#A5BEEB"/>
<path transform="translate(924,623)" d="m0 0v3l-3 6-1 9h-1v-11z" fill="#4B3C68"/>
<path transform="translate(1160,242)" d="m0 0 6 3 1 6h-2l-5-7z" fill="#F0F3F9"/>
</svg>
